<?xml version="1.0" encoding="utf-8" standalone="no"?>
<!DOCTYPE svg PUBLIC "-//W3C//DTD SVG 1.1//EN"
  "http://www.w3.org/Graphics/SVG/1.1/DTD/svg11.dtd">
<!-- Created with matplotlib (https://matplotlib.org/) -->
<svg height="504pt" version="1.1" viewBox="0 0 1008 504" width="1008pt" xmlns="http://www.w3.org/2000/svg" xmlns:xlink="http://www.w3.org/1999/xlink">
 <defs>
  <style type="text/css">
*{stroke-linecap:butt;stroke-linejoin:round;}
  </style>
 </defs>
 <g id="figure_1">
  <g id="patch_1">
   <path d="M 0 504 
L 1008 504 
L 1008 0 
L 0 0 
z
" style="fill:#ffffff;"/>
  </g>
  <g id="axes_1">
   <g id="patch_2">
    <path d="M 126 441 
L 481.090909 441 
L 481.090909 60.48 
L 126 60.48 
z
" style="fill:#ffffff;"/>
   </g>
   <g id="matplotlib.axis_1">
    <g id="xtick_1">
     <g id="line2d_1">
      <defs>
       <path d="M 0 0 
L 0 3.5 
" id="m8b73a62c46" style="stroke:#000000;stroke-width:0.8;"/>
      </defs>
      <g>
       <use style="stroke:#000000;stroke-width:0.8;" x="139.864897" xlink:href="#m8b73a62c46" y="441"/>
      </g>
     </g>
     <g id="text_1">
      <!-- 0 -->
      <defs>
       <path d="M 31.78125 66.40625 
Q 24.171875 66.40625 20.328125 58.90625 
Q 16.5 51.421875 16.5 36.375 
Q 16.5 21.390625 20.328125 13.890625 
Q 24.171875 6.390625 31.78125 6.390625 
Q 39.453125 6.390625 43.28125 13.890625 
Q 47.125 21.390625 47.125 36.375 
Q 47.125 51.421875 43.28125 58.90625 
Q 39.453125 66.40625 31.78125 66.40625 
z
M 31.78125 74.21875 
Q 44.046875 74.21875 50.515625 64.515625 
Q 56.984375 54.828125 56.984375 36.375 
Q 56.984375 17.96875 50.515625 8.265625 
Q 44.046875 -1.421875 31.78125 -1.421875 
Q 19.53125 -1.421875 13.0625 8.265625 
Q 6.59375 17.96875 6.59375 36.375 
Q 6.59375 54.828125 13.0625 64.515625 
Q 19.53125 74.21875 31.78125 74.21875 
z
" id="DejaVuSans-48"/>
      </defs>
      <g transform="translate(136.047397 457.118125)scale(0.12 -0.12)">
       <use xlink:href="#DejaVuSans-48"/>
      </g>
     </g>
    </g>
    <g id="xtick_2">
     <g id="line2d_2">
      <g>
       <use style="stroke:#000000;stroke-width:0.8;" x="185.376869" xlink:href="#m8b73a62c46" y="441"/>
      </g>
     </g>
     <g id="text_2">
      <!-- 20 -->
      <defs>
       <path d="M 19.1875 8.296875 
L 53.609375 8.296875 
L 53.609375 0 
L 7.328125 0 
L 7.328125 8.296875 
Q 12.9375 14.109375 22.625 23.890625 
Q 32.328125 33.6875 34.8125 36.53125 
Q 39.546875 41.84375 41.421875 45.53125 
Q 43.3125 49.21875 43.3125 52.78125 
Q 43.3125 58.59375 39.234375 62.25 
Q 35.15625 65.921875 28.609375 65.921875 
Q 23.96875 65.921875 18.8125 64.3125 
Q 13.671875 62.703125 7.8125 59.421875 
L 7.8125 69.390625 
Q 13.765625 71.78125 18.9375 73 
Q 24.125 74.21875 28.421875 74.21875 
Q 39.75 74.21875 46.484375 68.546875 
Q 53.21875 62.890625 53.21875 53.421875 
Q 53.21875 48.921875 51.53125 44.890625 
Q 49.859375 40.875 45.40625 35.40625 
Q 44.1875 33.984375 37.640625 27.21875 
Q 31.109375 20.453125 19.1875 8.296875 
z
" id="DejaVuSans-50"/>
      </defs>
      <g transform="translate(177.741869 457.118125)scale(0.12 -0.12)">
       <use xlink:href="#DejaVuSans-50"/>
       <use x="63.623047" xlink:href="#DejaVuSans-48"/>
      </g>
     </g>
    </g>
    <g id="xtick_3">
     <g id="line2d_3">
      <g>
       <use style="stroke:#000000;stroke-width:0.8;" x="230.888842" xlink:href="#m8b73a62c46" y="441"/>
      </g>
     </g>
     <g id="text_3">
      <!-- 40 -->
      <defs>
       <path d="M 37.796875 64.3125 
L 12.890625 25.390625 
L 37.796875 25.390625 
z
M 35.203125 72.90625 
L 47.609375 72.90625 
L 47.609375 25.390625 
L 58.015625 25.390625 
L 58.015625 17.1875 
L 47.609375 17.1875 
L 47.609375 0 
L 37.796875 0 
L 37.796875 17.1875 
L 4.890625 17.1875 
L 4.890625 26.703125 
z
" id="DejaVuSans-52"/>
      </defs>
      <g transform="translate(223.253842 457.118125)scale(0.12 -0.12)">
       <use xlink:href="#DejaVuSans-52"/>
       <use x="63.623047" xlink:href="#DejaVuSans-48"/>
      </g>
     </g>
    </g>
    <g id="xtick_4">
     <g id="line2d_4">
      <g>
       <use style="stroke:#000000;stroke-width:0.8;" x="276.400814" xlink:href="#m8b73a62c46" y="441"/>
      </g>
     </g>
     <g id="text_4">
      <!-- 60 -->
      <defs>
       <path d="M 33.015625 40.375 
Q 26.375 40.375 22.484375 35.828125 
Q 18.609375 31.296875 18.609375 23.390625 
Q 18.609375 15.53125 22.484375 10.953125 
Q 26.375 6.390625 33.015625 6.390625 
Q 39.65625 6.390625 43.53125 10.953125 
Q 47.40625 15.53125 47.40625 23.390625 
Q 47.40625 31.296875 43.53125 35.828125 
Q 39.65625 40.375 33.015625 40.375 
z
M 52.59375 71.296875 
L 52.59375 62.3125 
Q 48.875 64.0625 45.09375 64.984375 
Q 41.3125 65.921875 37.59375 65.921875 
Q 27.828125 65.921875 22.671875 59.328125 
Q 17.53125 52.734375 16.796875 39.40625 
Q 19.671875 43.65625 24.015625 45.921875 
Q 28.375 48.1875 33.59375 48.1875 
Q 44.578125 48.1875 50.953125 41.515625 
Q 57.328125 34.859375 57.328125 23.390625 
Q 57.328125 12.15625 50.6875 5.359375 
Q 44.046875 -1.421875 33.015625 -1.421875 
Q 20.359375 -1.421875 13.671875 8.265625 
Q 6.984375 17.96875 6.984375 36.375 
Q 6.984375 53.65625 15.1875 63.9375 
Q 23.390625 74.21875 37.203125 74.21875 
Q 40.921875 74.21875 44.703125 73.484375 
Q 48.484375 72.75 52.59375 71.296875 
z
" id="DejaVuSans-54"/>
      </defs>
      <g transform="translate(268.765814 457.118125)scale(0.12 -0.12)">
       <use xlink:href="#DejaVuSans-54"/>
       <use x="63.623047" xlink:href="#DejaVuSans-48"/>
      </g>
     </g>
    </g>
    <g id="xtick_5">
     <g id="line2d_5">
      <g>
       <use style="stroke:#000000;stroke-width:0.8;" x="321.912786" xlink:href="#m8b73a62c46" y="441"/>
      </g>
     </g>
     <g id="text_5">
      <!-- 80 -->
      <defs>
       <path d="M 31.78125 34.625 
Q 24.75 34.625 20.71875 30.859375 
Q 16.703125 27.09375 16.703125 20.515625 
Q 16.703125 13.921875 20.71875 10.15625 
Q 24.75 6.390625 31.78125 6.390625 
Q 38.8125 6.390625 42.859375 10.171875 
Q 46.921875 13.96875 46.921875 20.515625 
Q 46.921875 27.09375 42.890625 30.859375 
Q 38.875 34.625 31.78125 34.625 
z
M 21.921875 38.8125 
Q 15.578125 40.375 12.03125 44.71875 
Q 8.5 49.078125 8.5 55.328125 
Q 8.5 64.0625 14.71875 69.140625 
Q 20.953125 74.21875 31.78125 74.21875 
Q 42.671875 74.21875 48.875 69.140625 
Q 55.078125 64.0625 55.078125 55.328125 
Q 55.078125 49.078125 51.53125 44.71875 
Q 48 40.375 41.703125 38.8125 
Q 48.828125 37.15625 52.796875 32.3125 
Q 56.78125 27.484375 56.78125 20.515625 
Q 56.78125 9.90625 50.3125 4.234375 
Q 43.84375 -1.421875 31.78125 -1.421875 
Q 19.734375 -1.421875 13.25 4.234375 
Q 6.78125 9.90625 6.78125 20.515625 
Q 6.78125 27.484375 10.78125 32.3125 
Q 14.796875 37.15625 21.921875 38.8125 
z
M 18.3125 54.390625 
Q 18.3125 48.734375 21.84375 45.5625 
Q 25.390625 42.390625 31.78125 42.390625 
Q 38.140625 42.390625 41.71875 45.5625 
Q 45.3125 48.734375 45.3125 54.390625 
Q 45.3125 60.0625 41.71875 63.234375 
Q 38.140625 66.40625 31.78125 66.40625 
Q 25.390625 66.40625 21.84375 63.234375 
Q 18.3125 60.0625 18.3125 54.390625 
z
" id="DejaVuSans-56"/>
      </defs>
      <g transform="translate(314.277786 457.118125)scale(0.12 -0.12)">
       <use xlink:href="#DejaVuSans-56"/>
       <use x="63.623047" xlink:href="#DejaVuSans-48"/>
      </g>
     </g>
    </g>
    <g id="xtick_6">
     <g id="line2d_6">
      <g>
       <use style="stroke:#000000;stroke-width:0.8;" x="367.424758" xlink:href="#m8b73a62c46" y="441"/>
      </g>
     </g>
     <g id="text_6">
      <!-- 100 -->
      <defs>
       <path d="M 12.40625 8.296875 
L 28.515625 8.296875 
L 28.515625 63.921875 
L 10.984375 60.40625 
L 10.984375 69.390625 
L 28.421875 72.90625 
L 38.28125 72.90625 
L 38.28125 8.296875 
L 54.390625 8.296875 
L 54.390625 0 
L 12.40625 0 
z
" id="DejaVuSans-49"/>
      </defs>
      <g transform="translate(355.972258 457.118125)scale(0.12 -0.12)">
       <use xlink:href="#DejaVuSans-49"/>
       <use x="63.623047" xlink:href="#DejaVuSans-48"/>
       <use x="127.246094" xlink:href="#DejaVuSans-48"/>
      </g>
     </g>
    </g>
    <g id="xtick_7">
     <g id="line2d_7">
      <g>
       <use style="stroke:#000000;stroke-width:0.8;" x="412.936731" xlink:href="#m8b73a62c46" y="441"/>
      </g>
     </g>
     <g id="text_7">
      <!-- 120 -->
      <g transform="translate(401.484231 457.118125)scale(0.12 -0.12)">
       <use xlink:href="#DejaVuSans-49"/>
       <use x="63.623047" xlink:href="#DejaVuSans-50"/>
       <use x="127.246094" xlink:href="#DejaVuSans-48"/>
      </g>
     </g>
    </g>
    <g id="xtick_8">
     <g id="line2d_8">
      <g>
       <use style="stroke:#000000;stroke-width:0.8;" x="458.448703" xlink:href="#m8b73a62c46" y="441"/>
      </g>
     </g>
     <g id="text_8">
      <!-- 140 -->
      <g transform="translate(446.996203 457.118125)scale(0.12 -0.12)">
       <use xlink:href="#DejaVuSans-49"/>
       <use x="63.623047" xlink:href="#DejaVuSans-52"/>
       <use x="127.246094" xlink:href="#DejaVuSans-48"/>
      </g>
     </g>
    </g>
    <g id="text_9">
     <!-- $1/J$(bare Kondo coupling in units of t) -->
     <defs>
      <path d="M 25.390625 72.90625 
L 33.6875 72.90625 
L 8.296875 -9.28125 
L 0 -9.28125 
z
" id="DejaVuSans-47"/>
      <path d="M 16.703125 72.90625 
L 26.609375 72.90625 
L 13.375 5.078125 
Q 10.796875 -8.15625 4.65625 -14.078125 
Q -1.46875 -20.015625 -12.5 -20.015625 
L -16.40625 -20.015625 
L -14.796875 -11.71875 
L -11.71875 -11.71875 
Q -5.125 -11.71875 -1.703125 -7.953125 
Q 1.703125 -4.203125 3.515625 5.078125 
z
" id="DejaVuSans-Oblique-74"/>
      <path d="M 31 75.875 
Q 24.46875 64.65625 21.28125 53.65625 
Q 18.109375 42.671875 18.109375 31.390625 
Q 18.109375 20.125 21.3125 9.0625 
Q 24.515625 -2 31 -13.1875 
L 23.1875 -13.1875 
Q 15.875 -1.703125 12.234375 9.375 
Q 8.59375 20.453125 8.59375 31.390625 
Q 8.59375 42.28125 12.203125 53.3125 
Q 15.828125 64.359375 23.1875 75.875 
z
" id="DejaVuSans-40"/>
      <path d="M 48.6875 27.296875 
Q 48.6875 37.203125 44.609375 42.84375 
Q 40.53125 48.484375 33.40625 48.484375 
Q 26.265625 48.484375 22.1875 42.84375 
Q 18.109375 37.203125 18.109375 27.296875 
Q 18.109375 17.390625 22.1875 11.75 
Q 26.265625 6.109375 33.40625 6.109375 
Q 40.53125 6.109375 44.609375 11.75 
Q 48.6875 17.390625 48.6875 27.296875 
z
M 18.109375 46.390625 
Q 20.953125 51.265625 25.265625 53.625 
Q 29.59375 56 35.59375 56 
Q 45.5625 56 51.78125 48.09375 
Q 58.015625 40.1875 58.015625 27.296875 
Q 58.015625 14.40625 51.78125 6.484375 
Q 45.5625 -1.421875 35.59375 -1.421875 
Q 29.59375 -1.421875 25.265625 0.953125 
Q 20.953125 3.328125 18.109375 8.203125 
L 18.109375 0 
L 9.078125 0 
L 9.078125 75.984375 
L 18.109375 75.984375 
z
" id="DejaVuSans-98"/>
      <path d="M 34.28125 27.484375 
Q 23.390625 27.484375 19.1875 25 
Q 14.984375 22.515625 14.984375 16.5 
Q 14.984375 11.71875 18.140625 8.90625 
Q 21.296875 6.109375 26.703125 6.109375 
Q 34.1875 6.109375 38.703125 11.40625 
Q 43.21875 16.703125 43.21875 25.484375 
L 43.21875 27.484375 
z
M 52.203125 31.203125 
L 52.203125 0 
L 43.21875 0 
L 43.21875 8.296875 
Q 40.140625 3.328125 35.546875 0.953125 
Q 30.953125 -1.421875 24.3125 -1.421875 
Q 15.921875 -1.421875 10.953125 3.296875 
Q 6 8.015625 6 15.921875 
Q 6 25.140625 12.171875 29.828125 
Q 18.359375 34.515625 30.609375 34.515625 
L 43.21875 34.515625 
L 43.21875 35.40625 
Q 43.21875 41.609375 39.140625 45 
Q 35.0625 48.390625 27.6875 48.390625 
Q 23 48.390625 18.546875 47.265625 
Q 14.109375 46.140625 10.015625 43.890625 
L 10.015625 52.203125 
Q 14.9375 54.109375 19.578125 55.046875 
Q 24.21875 56 28.609375 56 
Q 40.484375 56 46.34375 49.84375 
Q 52.203125 43.703125 52.203125 31.203125 
z
" id="DejaVuSans-97"/>
      <path d="M 41.109375 46.296875 
Q 39.59375 47.171875 37.8125 47.578125 
Q 36.03125 48 33.890625 48 
Q 26.265625 48 22.1875 43.046875 
Q 18.109375 38.09375 18.109375 28.8125 
L 18.109375 0 
L 9.078125 0 
L 9.078125 54.6875 
L 18.109375 54.6875 
L 18.109375 46.1875 
Q 20.953125 51.171875 25.484375 53.578125 
Q 30.03125 56 36.53125 56 
Q 37.453125 56 38.578125 55.875 
Q 39.703125 55.765625 41.0625 55.515625 
z
" id="DejaVuSans-114"/>
      <path d="M 56.203125 29.59375 
L 56.203125 25.203125 
L 14.890625 25.203125 
Q 15.484375 15.921875 20.484375 11.0625 
Q 25.484375 6.203125 34.421875 6.203125 
Q 39.59375 6.203125 44.453125 7.46875 
Q 49.3125 8.734375 54.109375 11.28125 
L 54.109375 2.78125 
Q 49.265625 0.734375 44.1875 -0.34375 
Q 39.109375 -1.421875 33.890625 -1.421875 
Q 20.796875 -1.421875 13.15625 6.1875 
Q 5.515625 13.8125 5.515625 26.8125 
Q 5.515625 40.234375 12.765625 48.109375 
Q 20.015625 56 32.328125 56 
Q 43.359375 56 49.78125 48.890625 
Q 56.203125 41.796875 56.203125 29.59375 
z
M 47.21875 32.234375 
Q 47.125 39.59375 43.09375 43.984375 
Q 39.0625 48.390625 32.421875 48.390625 
Q 24.90625 48.390625 20.390625 44.140625 
Q 15.875 39.890625 15.1875 32.171875 
z
" id="DejaVuSans-101"/>
      <path id="DejaVuSans-32"/>
      <path d="M 9.8125 72.90625 
L 19.671875 72.90625 
L 19.671875 42.09375 
L 52.390625 72.90625 
L 65.09375 72.90625 
L 28.90625 38.921875 
L 67.671875 0 
L 54.6875 0 
L 19.671875 35.109375 
L 19.671875 0 
L 9.8125 0 
z
" id="DejaVuSans-75"/>
      <path d="M 30.609375 48.390625 
Q 23.390625 48.390625 19.1875 42.75 
Q 14.984375 37.109375 14.984375 27.296875 
Q 14.984375 17.484375 19.15625 11.84375 
Q 23.34375 6.203125 30.609375 6.203125 
Q 37.796875 6.203125 41.984375 11.859375 
Q 46.1875 17.53125 46.1875 27.296875 
Q 46.1875 37.015625 41.984375 42.703125 
Q 37.796875 48.390625 30.609375 48.390625 
z
M 30.609375 56 
Q 42.328125 56 49.015625 48.375 
Q 55.71875 40.765625 55.71875 27.296875 
Q 55.71875 13.875 49.015625 6.21875 
Q 42.328125 -1.421875 30.609375 -1.421875 
Q 18.84375 -1.421875 12.171875 6.21875 
Q 5.515625 13.875 5.515625 27.296875 
Q 5.515625 40.765625 12.171875 48.375 
Q 18.84375 56 30.609375 56 
z
" id="DejaVuSans-111"/>
      <path d="M 54.890625 33.015625 
L 54.890625 0 
L 45.90625 0 
L 45.90625 32.71875 
Q 45.90625 40.484375 42.875 44.328125 
Q 39.84375 48.1875 33.796875 48.1875 
Q 26.515625 48.1875 22.3125 43.546875 
Q 18.109375 38.921875 18.109375 30.90625 
L 18.109375 0 
L 9.078125 0 
L 9.078125 54.6875 
L 18.109375 54.6875 
L 18.109375 46.1875 
Q 21.34375 51.125 25.703125 53.5625 
Q 30.078125 56 35.796875 56 
Q 45.21875 56 50.046875 50.171875 
Q 54.890625 44.34375 54.890625 33.015625 
z
" id="DejaVuSans-110"/>
      <path d="M 45.40625 46.390625 
L 45.40625 75.984375 
L 54.390625 75.984375 
L 54.390625 0 
L 45.40625 0 
L 45.40625 8.203125 
Q 42.578125 3.328125 38.25 0.953125 
Q 33.9375 -1.421875 27.875 -1.421875 
Q 17.96875 -1.421875 11.734375 6.484375 
Q 5.515625 14.40625 5.515625 27.296875 
Q 5.515625 40.1875 11.734375 48.09375 
Q 17.96875 56 27.875 56 
Q 33.9375 56 38.25 53.625 
Q 42.578125 51.265625 45.40625 46.390625 
z
M 14.796875 27.296875 
Q 14.796875 17.390625 18.875 11.75 
Q 22.953125 6.109375 30.078125 6.109375 
Q 37.203125 6.109375 41.296875 11.75 
Q 45.40625 17.390625 45.40625 27.296875 
Q 45.40625 37.203125 41.296875 42.84375 
Q 37.203125 48.484375 30.078125 48.484375 
Q 22.953125 48.484375 18.875 42.84375 
Q 14.796875 37.203125 14.796875 27.296875 
z
" id="DejaVuSans-100"/>
      <path d="M 48.78125 52.59375 
L 48.78125 44.1875 
Q 44.96875 46.296875 41.140625 47.34375 
Q 37.3125 48.390625 33.40625 48.390625 
Q 24.65625 48.390625 19.8125 42.84375 
Q 14.984375 37.3125 14.984375 27.296875 
Q 14.984375 17.28125 19.8125 11.734375 
Q 24.65625 6.203125 33.40625 6.203125 
Q 37.3125 6.203125 41.140625 7.25 
Q 44.96875 8.296875 48.78125 10.40625 
L 48.78125 2.09375 
Q 45.015625 0.34375 40.984375 -0.53125 
Q 36.96875 -1.421875 32.421875 -1.421875 
Q 20.0625 -1.421875 12.78125 6.34375 
Q 5.515625 14.109375 5.515625 27.296875 
Q 5.515625 40.671875 12.859375 48.328125 
Q 20.21875 56 33.015625 56 
Q 37.15625 56 41.109375 55.140625 
Q 45.0625 54.296875 48.78125 52.59375 
z
" id="DejaVuSans-99"/>
      <path d="M 8.5 21.578125 
L 8.5 54.6875 
L 17.484375 54.6875 
L 17.484375 21.921875 
Q 17.484375 14.15625 20.5 10.265625 
Q 23.53125 6.390625 29.59375 6.390625 
Q 36.859375 6.390625 41.078125 11.03125 
Q 45.3125 15.671875 45.3125 23.6875 
L 45.3125 54.6875 
L 54.296875 54.6875 
L 54.296875 0 
L 45.3125 0 
L 45.3125 8.40625 
Q 42.046875 3.421875 37.71875 1 
Q 33.40625 -1.421875 27.6875 -1.421875 
Q 18.265625 -1.421875 13.375 4.4375 
Q 8.5 10.296875 8.5 21.578125 
z
M 31.109375 56 
z
" id="DejaVuSans-117"/>
      <path d="M 18.109375 8.203125 
L 18.109375 -20.796875 
L 9.078125 -20.796875 
L 9.078125 54.6875 
L 18.109375 54.6875 
L 18.109375 46.390625 
Q 20.953125 51.265625 25.265625 53.625 
Q 29.59375 56 35.59375 56 
Q 45.5625 56 51.78125 48.09375 
Q 58.015625 40.1875 58.015625 27.296875 
Q 58.015625 14.40625 51.78125 6.484375 
Q 45.5625 -1.421875 35.59375 -1.421875 
Q 29.59375 -1.421875 25.265625 0.953125 
Q 20.953125 3.328125 18.109375 8.203125 
z
M 48.6875 27.296875 
Q 48.6875 37.203125 44.609375 42.84375 
Q 40.53125 48.484375 33.40625 48.484375 
Q 26.265625 48.484375 22.1875 42.84375 
Q 18.109375 37.203125 18.109375 27.296875 
Q 18.109375 17.390625 22.1875 11.75 
Q 26.265625 6.109375 33.40625 6.109375 
Q 40.53125 6.109375 44.609375 11.75 
Q 48.6875 17.390625 48.6875 27.296875 
z
" id="DejaVuSans-112"/>
      <path d="M 9.421875 75.984375 
L 18.40625 75.984375 
L 18.40625 0 
L 9.421875 0 
z
" id="DejaVuSans-108"/>
      <path d="M 9.421875 54.6875 
L 18.40625 54.6875 
L 18.40625 0 
L 9.421875 0 
z
M 9.421875 75.984375 
L 18.40625 75.984375 
L 18.40625 64.59375 
L 9.421875 64.59375 
z
" id="DejaVuSans-105"/>
      <path d="M 45.40625 27.984375 
Q 45.40625 37.75 41.375 43.109375 
Q 37.359375 48.484375 30.078125 48.484375 
Q 22.859375 48.484375 18.828125 43.109375 
Q 14.796875 37.75 14.796875 27.984375 
Q 14.796875 18.265625 18.828125 12.890625 
Q 22.859375 7.515625 30.078125 7.515625 
Q 37.359375 7.515625 41.375 12.890625 
Q 45.40625 18.265625 45.40625 27.984375 
z
M 54.390625 6.78125 
Q 54.390625 -7.171875 48.1875 -13.984375 
Q 42 -20.796875 29.203125 -20.796875 
Q 24.46875 -20.796875 20.265625 -20.09375 
Q 16.0625 -19.390625 12.109375 -17.921875 
L 12.109375 -9.1875 
Q 16.0625 -11.328125 19.921875 -12.34375 
Q 23.78125 -13.375 27.78125 -13.375 
Q 36.625 -13.375 41.015625 -8.765625 
Q 45.40625 -4.15625 45.40625 5.171875 
L 45.40625 9.625 
Q 42.625 4.78125 38.28125 2.390625 
Q 33.9375 0 27.875 0 
Q 17.828125 0 11.671875 7.65625 
Q 5.515625 15.328125 5.515625 27.984375 
Q 5.515625 40.671875 11.671875 48.328125 
Q 17.828125 56 27.875 56 
Q 33.9375 56 38.28125 53.609375 
Q 42.625 51.21875 45.40625 46.390625 
L 45.40625 54.6875 
L 54.390625 54.6875 
z
" id="DejaVuSans-103"/>
      <path d="M 18.3125 70.21875 
L 18.3125 54.6875 
L 36.8125 54.6875 
L 36.8125 47.703125 
L 18.3125 47.703125 
L 18.3125 18.015625 
Q 18.3125 11.328125 20.140625 9.421875 
Q 21.96875 7.515625 27.59375 7.515625 
L 36.8125 7.515625 
L 36.8125 0 
L 27.59375 0 
Q 17.1875 0 13.234375 3.875 
Q 9.28125 7.765625 9.28125 18.015625 
L 9.28125 47.703125 
L 2.6875 47.703125 
L 2.6875 54.6875 
L 9.28125 54.6875 
L 9.28125 70.21875 
z
" id="DejaVuSans-116"/>
      <path d="M 44.28125 53.078125 
L 44.28125 44.578125 
Q 40.484375 46.53125 36.375 47.5 
Q 32.28125 48.484375 27.875 48.484375 
Q 21.1875 48.484375 17.84375 46.4375 
Q 14.5 44.390625 14.5 40.28125 
Q 14.5 37.15625 16.890625 35.375 
Q 19.28125 33.59375 26.515625 31.984375 
L 29.59375 31.296875 
Q 39.15625 29.25 43.1875 25.515625 
Q 47.21875 21.78125 47.21875 15.09375 
Q 47.21875 7.46875 41.1875 3.015625 
Q 35.15625 -1.421875 24.609375 -1.421875 
Q 20.21875 -1.421875 15.453125 -0.5625 
Q 10.6875 0.296875 5.421875 2 
L 5.421875 11.28125 
Q 10.40625 8.6875 15.234375 7.390625 
Q 20.0625 6.109375 24.8125 6.109375 
Q 31.15625 6.109375 34.5625 8.28125 
Q 37.984375 10.453125 37.984375 14.40625 
Q 37.984375 18.0625 35.515625 20.015625 
Q 33.0625 21.96875 24.703125 23.78125 
L 21.578125 24.515625 
Q 13.234375 26.265625 9.515625 29.90625 
Q 5.8125 33.546875 5.8125 39.890625 
Q 5.8125 47.609375 11.28125 51.796875 
Q 16.75 56 26.8125 56 
Q 31.78125 56 36.171875 55.265625 
Q 40.578125 54.546875 44.28125 53.078125 
z
" id="DejaVuSans-115"/>
      <path d="M 37.109375 75.984375 
L 37.109375 68.5 
L 28.515625 68.5 
Q 23.6875 68.5 21.796875 66.546875 
Q 19.921875 64.59375 19.921875 59.515625 
L 19.921875 54.6875 
L 34.71875 54.6875 
L 34.71875 47.703125 
L 19.921875 47.703125 
L 19.921875 0 
L 10.890625 0 
L 10.890625 47.703125 
L 2.296875 47.703125 
L 2.296875 54.6875 
L 10.890625 54.6875 
L 10.890625 58.5 
Q 10.890625 67.625 15.140625 71.796875 
Q 19.390625 75.984375 28.609375 75.984375 
z
" id="DejaVuSans-102"/>
      <path d="M 8.015625 75.875 
L 15.828125 75.875 
Q 23.140625 64.359375 26.78125 53.3125 
Q 30.421875 42.28125 30.421875 31.390625 
Q 30.421875 20.453125 26.78125 9.375 
Q 23.140625 -1.703125 15.828125 -13.1875 
L 8.015625 -13.1875 
Q 14.5 -2 17.703125 9.0625 
Q 20.90625 20.125 20.90625 31.390625 
Q 20.90625 42.671875 17.703125 53.65625 
Q 14.5 64.65625 8.015625 75.875 
z
" id="DejaVuSans-41"/>
     </defs>
     <g transform="translate(165.845455 475.01375)scale(0.15 -0.15)">
      <use transform="translate(0 0.015625)" xlink:href="#DejaVuSans-49"/>
      <use transform="translate(63.623047 0.015625)" xlink:href="#DejaVuSans-47"/>
      <use transform="translate(97.314453 0.015625)" xlink:href="#DejaVuSans-Oblique-74"/>
      <use transform="translate(126.806641 0.015625)" xlink:href="#DejaVuSans-40"/>
      <use transform="translate(165.820312 0.015625)" xlink:href="#DejaVuSans-98"/>
      <use transform="translate(229.296875 0.015625)" xlink:href="#DejaVuSans-97"/>
      <use transform="translate(290.576172 0.015625)" xlink:href="#DejaVuSans-114"/>
      <use transform="translate(331.689453 0.015625)" xlink:href="#DejaVuSans-101"/>
      <use transform="translate(393.212891 0.015625)" xlink:href="#DejaVuSans-32"/>
      <use transform="translate(425 0.015625)" xlink:href="#DejaVuSans-75"/>
      <use transform="translate(490.576172 0.015625)" xlink:href="#DejaVuSans-111"/>
      <use transform="translate(551.757812 0.015625)" xlink:href="#DejaVuSans-110"/>
      <use transform="translate(615.136719 0.015625)" xlink:href="#DejaVuSans-100"/>
      <use transform="translate(678.613281 0.015625)" xlink:href="#DejaVuSans-111"/>
      <use transform="translate(739.794922 0.015625)" xlink:href="#DejaVuSans-32"/>
      <use transform="translate(771.582031 0.015625)" xlink:href="#DejaVuSans-99"/>
      <use transform="translate(826.5625 0.015625)" xlink:href="#DejaVuSans-111"/>
      <use transform="translate(887.744141 0.015625)" xlink:href="#DejaVuSans-117"/>
      <use transform="translate(951.123047 0.015625)" xlink:href="#DejaVuSans-112"/>
      <use transform="translate(1014.599609 0.015625)" xlink:href="#DejaVuSans-108"/>
      <use transform="translate(1042.382812 0.015625)" xlink:href="#DejaVuSans-105"/>
      <use transform="translate(1070.166016 0.015625)" xlink:href="#DejaVuSans-110"/>
      <use transform="translate(1133.544922 0.015625)" xlink:href="#DejaVuSans-103"/>
      <use transform="translate(1197.021484 0.015625)" xlink:href="#DejaVuSans-32"/>
      <use transform="translate(1228.808594 0.015625)" xlink:href="#DejaVuSans-105"/>
      <use transform="translate(1256.591797 0.015625)" xlink:href="#DejaVuSans-110"/>
      <use transform="translate(1319.970703 0.015625)" xlink:href="#DejaVuSans-32"/>
      <use transform="translate(1351.757812 0.015625)" xlink:href="#DejaVuSans-117"/>
      <use transform="translate(1415.136719 0.015625)" xlink:href="#DejaVuSans-110"/>
      <use transform="translate(1478.515625 0.015625)" xlink:href="#DejaVuSans-105"/>
      <use transform="translate(1506.298828 0.015625)" xlink:href="#DejaVuSans-116"/>
      <use transform="translate(1545.507812 0.015625)" xlink:href="#DejaVuSans-115"/>
      <use transform="translate(1597.607422 0.015625)" xlink:href="#DejaVuSans-32"/>
      <use transform="translate(1629.394531 0.015625)" xlink:href="#DejaVuSans-111"/>
      <use transform="translate(1690.576172 0.015625)" xlink:href="#DejaVuSans-102"/>
      <use transform="translate(1725.78125 0.015625)" xlink:href="#DejaVuSans-32"/>
      <use transform="translate(1757.568359 0.015625)" xlink:href="#DejaVuSans-116"/>
      <use transform="translate(1796.777344 0.015625)" xlink:href="#DejaVuSans-41"/>
     </g>
    </g>
   </g>
   <g id="matplotlib.axis_2">
    <g id="ytick_1">
     <g id="line2d_9">
      <defs>
       <path d="M 0 0 
L -3.5 0 
" id="m2685c5d18e" style="stroke:#000000;stroke-width:0.8;"/>
      </defs>
      <g>
       <use style="stroke:#000000;stroke-width:0.8;" x="126" xlink:href="#m2685c5d18e" y="255.507783"/>
      </g>
     </g>
     <g id="text_10">
      <!-- $\mathdefault{10^{1}}$ -->
      <g transform="translate(97.88 260.066845)scale(0.12 -0.12)">
       <use transform="translate(0 0.684375)" xlink:href="#DejaVuSans-49"/>
       <use transform="translate(63.623047 0.684375)" xlink:href="#DejaVuSans-48"/>
       <use transform="translate(128.203125 38.965625)scale(0.7)" xlink:href="#DejaVuSans-49"/>
      </g>
     </g>
    </g>
    <g id="ytick_2">
     <g id="line2d_10">
      <defs>
       <path d="M 0 0 
L -2 0 
" id="m18ea1bffd5" style="stroke:#000000;stroke-width:0.6;"/>
      </defs>
      <g>
       <use style="stroke:#000000;stroke-width:0.6;" x="126" xlink:href="#m18ea1bffd5" y="414.933418"/>
      </g>
     </g>
     <g id="text_11">
      <!-- $\mathdefault{4\times10^{0}}$ -->
      <defs>
       <path d="M 70.125 53.71875 
L 47.796875 31.296875 
L 70.125 8.984375 
L 64.3125 3.078125 
L 41.890625 25.484375 
L 19.484375 3.078125 
L 13.71875 8.984375 
L 35.984375 31.296875 
L 13.71875 53.71875 
L 19.484375 59.625 
L 41.890625 37.203125 
L 64.3125 59.625 
z
" id="DejaVuSans-215"/>
      </defs>
      <g transform="translate(84.4 418.732637)scale(0.1 -0.1)">
       <use transform="translate(0 0.765625)" xlink:href="#DejaVuSans-52"/>
       <use transform="translate(83.105469 0.765625)" xlink:href="#DejaVuSans-215"/>
       <use transform="translate(186.376953 0.765625)" xlink:href="#DejaVuSans-49"/>
       <use transform="translate(250 0.765625)" xlink:href="#DejaVuSans-48"/>
       <use transform="translate(314.580078 39.046875)scale(0.7)" xlink:href="#DejaVuSans-48"/>
      </g>
     </g>
    </g>
    <g id="ytick_3">
     <g id="line2d_11">
      <g>
       <use style="stroke:#000000;stroke-width:0.6;" x="126" xlink:href="#m18ea1bffd5" y="376.10862"/>
      </g>
     </g>
    </g>
    <g id="ytick_4">
     <g id="line2d_12">
      <g>
       <use style="stroke:#000000;stroke-width:0.6;" x="126" xlink:href="#m18ea1bffd5" y="344.386451"/>
      </g>
     </g>
     <g id="text_12">
      <!-- $\mathdefault{6\times10^{0}}$ -->
      <g transform="translate(84.4 348.185669)scale(0.1 -0.1)">
       <use transform="translate(0 0.765625)" xlink:href="#DejaVuSans-54"/>
       <use transform="translate(83.105469 0.765625)" xlink:href="#DejaVuSans-215"/>
       <use transform="translate(186.376953 0.765625)" xlink:href="#DejaVuSans-49"/>
       <use transform="translate(250 0.765625)" xlink:href="#DejaVuSans-48"/>
       <use transform="translate(314.580078 39.046875)scale(0.7)" xlink:href="#DejaVuSans-48"/>
      </g>
     </g>
    </g>
    <g id="ytick_5">
     <g id="line2d_13">
      <g>
       <use style="stroke:#000000;stroke-width:0.6;" x="126" xlink:href="#m18ea1bffd5" y="317.565738"/>
      </g>
     </g>
    </g>
    <g id="ytick_6">
     <g id="line2d_14">
      <g>
       <use style="stroke:#000000;stroke-width:0.6;" x="126" xlink:href="#m18ea1bffd5" y="294.332581"/>
      </g>
     </g>
    </g>
    <g id="ytick_7">
     <g id="line2d_15">
      <g>
       <use style="stroke:#000000;stroke-width:0.6;" x="126" xlink:href="#m18ea1bffd5" y="273.839483"/>
      </g>
     </g>
    </g>
    <g id="ytick_8">
     <g id="line2d_16">
      <g>
       <use style="stroke:#000000;stroke-width:0.6;" x="126" xlink:href="#m18ea1bffd5" y="134.906945"/>
      </g>
     </g>
     <g id="text_13">
      <!-- $\mathdefault{2\times10^{1}}$ -->
      <g transform="translate(84.4 138.706164)scale(0.1 -0.1)">
       <use transform="translate(0 0.684375)" xlink:href="#DejaVuSans-50"/>
       <use transform="translate(83.105469 0.684375)" xlink:href="#DejaVuSans-215"/>
       <use transform="translate(186.376953 0.684375)" xlink:href="#DejaVuSans-49"/>
       <use transform="translate(250 0.684375)" xlink:href="#DejaVuSans-48"/>
       <use transform="translate(314.580078 38.965625)scale(0.7)" xlink:href="#DejaVuSans-49"/>
      </g>
     </g>
    </g>
    <g id="ytick_9">
     <g id="line2d_17">
      <g>
       <use style="stroke:#000000;stroke-width:0.6;" x="126" xlink:href="#m18ea1bffd5" y="64.359978"/>
      </g>
     </g>
     <g id="text_14">
      <!-- $\mathdefault{3\times10^{1}}$ -->
      <defs>
       <path d="M 40.578125 39.3125 
Q 47.65625 37.796875 51.625 33 
Q 55.609375 28.21875 55.609375 21.1875 
Q 55.609375 10.40625 48.1875 4.484375 
Q 40.765625 -1.421875 27.09375 -1.421875 
Q 22.515625 -1.421875 17.65625 -0.515625 
Q 12.796875 0.390625 7.625 2.203125 
L 7.625 11.71875 
Q 11.71875 9.328125 16.59375 8.109375 
Q 21.484375 6.890625 26.8125 6.890625 
Q 36.078125 6.890625 40.9375 10.546875 
Q 45.796875 14.203125 45.796875 21.1875 
Q 45.796875 27.640625 41.28125 31.265625 
Q 36.765625 34.90625 28.71875 34.90625 
L 20.21875 34.90625 
L 20.21875 43.015625 
L 29.109375 43.015625 
Q 36.375 43.015625 40.234375 45.921875 
Q 44.09375 48.828125 44.09375 54.296875 
Q 44.09375 59.90625 40.109375 62.90625 
Q 36.140625 65.921875 28.71875 65.921875 
Q 24.65625 65.921875 20.015625 65.03125 
Q 15.375 64.15625 9.8125 62.3125 
L 9.8125 71.09375 
Q 15.4375 72.65625 20.34375 73.4375 
Q 25.25 74.21875 29.59375 74.21875 
Q 40.828125 74.21875 47.359375 69.109375 
Q 53.90625 64.015625 53.90625 55.328125 
Q 53.90625 49.265625 50.4375 45.09375 
Q 46.96875 40.921875 40.578125 39.3125 
z
" id="DejaVuSans-51"/>
      </defs>
      <g transform="translate(84.4 68.159197)scale(0.1 -0.1)">
       <use transform="translate(0 0.684375)" xlink:href="#DejaVuSans-51"/>
       <use transform="translate(83.105469 0.684375)" xlink:href="#DejaVuSans-215"/>
       <use transform="translate(186.376953 0.684375)" xlink:href="#DejaVuSans-49"/>
       <use transform="translate(250 0.684375)" xlink:href="#DejaVuSans-48"/>
       <use transform="translate(314.580078 38.965625)scale(0.7)" xlink:href="#DejaVuSans-49"/>
      </g>
     </g>
    </g>
    <g id="text_15">
     <!-- $\xi_{K}$(log scale) -->
     <defs>
      <path d="M 31.5 6.203125 
Q 37.9375 6.15625 41.0625 2.484375 
Q 44.4375 -1.375 43.3125 -7.234375 
Q 42.1875 -12.84375 37.84375 -16.75 
Q 33.109375 -21 25.140625 -21 
Q 25.875 -17.328125 26.5625 -13.625 
Q 29.890625 -13.875 32.375 -11.71875 
Q 34.28125 -10.015625 34.625 -8.203125 
Q 35.109375 -5.609375 33.984375 -3.46875 
Q 32.8125 -1.421875 30.03125 -1.421875 
Q -0.390625 -1.421875 3.765625 19.921875 
Q 6.59375 34.578125 23.6875 38.875 
Q 10.359375 40.625 12.84375 53.328125 
Q 14.703125 62.9375 26.21875 66.9375 
L 16.0625 66.9375 
L 17.828125 75.984375 
L 56.34375 75.984375 
L 54.59375 66.9375 
Q 23.875 66.9375 21.09375 52.734375 
Q 19.28125 43.40625 45.015625 42.96875 
L 43.40625 34.671875 
Q 15.765625 35.75 12.796875 19.921875 
Q 10.296875 6.6875 31.5 6.203125 
z
" id="DejaVuSans-Oblique-958"/>
      <path d="M 16.890625 72.90625 
L 26.8125 72.90625 
L 20.796875 42.1875 
L 59.078125 72.90625 
L 72.21875 72.90625 
L 28.90625 38.09375 
L 60.59375 0 
L 48.578125 0 
L 19.484375 35.5 
L 12.59375 0 
L 2.6875 0 
z
" id="DejaVuSans-Oblique-75"/>
     </defs>
     <g transform="translate(77.25 297.615)rotate(-90)scale(0.15 -0.15)">
      <use transform="translate(0 0.015625)" xlink:href="#DejaVuSans-Oblique-958"/>
      <use transform="translate(55.761719 -16.390625)scale(0.7)" xlink:href="#DejaVuSans-Oblique-75"/>
      <use transform="translate(104.399414 0.015625)" xlink:href="#DejaVuSans-40"/>
      <use transform="translate(143.413086 0.015625)" xlink:href="#DejaVuSans-108"/>
      <use transform="translate(171.196289 0.015625)" xlink:href="#DejaVuSans-111"/>
      <use transform="translate(232.37793 0.015625)" xlink:href="#DejaVuSans-103"/>
      <use transform="translate(295.854492 0.015625)" xlink:href="#DejaVuSans-32"/>
      <use transform="translate(327.641602 0.015625)" xlink:href="#DejaVuSans-115"/>
      <use transform="translate(379.741211 0.015625)" xlink:href="#DejaVuSans-99"/>
      <use transform="translate(434.72168 0.015625)" xlink:href="#DejaVuSans-97"/>
      <use transform="translate(496.000977 0.015625)" xlink:href="#DejaVuSans-108"/>
      <use transform="translate(523.78418 0.015625)" xlink:href="#DejaVuSans-101"/>
      <use transform="translate(585.307617 0.015625)" xlink:href="#DejaVuSans-41"/>
     </g>
    </g>
   </g>
   <g id="line2d_18">
    <path clip-path="url(#pbb31ef4fe5)" d="M 464.950413 77.776364 
L 273.485456 197.13963 
L 223.957567 250.418102 
L 201.216821 282.468705 
L 188.157344 304.34037 
L 179.68184 320.365672 
L 173.737136 332.702196 
L 169.336936 342.515736 
L 165.948521 350.537086 
L 163.258902 357.218645 
L 161.072114 362.87361 
L 159.259204 367.728181 
L 157.731839 371.956355 
L 156.427481 375.645132 
L 155.300612 378.916312 
L 154.317313 381.839494 
L 153.45179 384.449478 
L 152.684077 386.798463 
L 151.998482 388.93865 
L 151.382498 390.887438 
L 150.826035 392.662227 
L 150.320864 394.297817 
L 149.860206 395.811608 
L 149.438425 397.203599 
L 149.0508 398.491191 
L 148.693342 399.691784 
L 148.362663 400.822777 
L 148.055861 401.866771 
L 147.77044 402.841165 
L 147.504242 403.763359 
L 147.255386 404.633354 
L 147.022232 405.451149 
L 146.803339 406.234144 
L 146.597438 406.947539 
L 146.403404 407.643535 
L 146.220242 408.304731 
L 146.047062 408.913727 
L 145.88307 409.505324 
L 145.727553 410.07952 
L 145.579871 410.618917 
L 145.439447 411.123514 
L 145.305758 411.610711 
L 145.178331 412.080508 
L 145.056736 412.532905 
L 144.940582 412.950502 
L 144.829511 413.3681 
L 144.723198 413.768297 
L 144.621342 414.151095 
L 144.52367 414.516493 
L 144.429928 414.864491 
L 144.339884 415.195089 
L 144.253324 415.525687 
L 144.170049 415.838885 
L 144.089875 416.134683 
L 144.012633 416.430481 
L 143.938164 416.708879 
L 143.866323 416.987278 
L 143.796972 417.248276 
L 143.729983 417.509274 
L 143.665239 417.752873 
L 143.602628 417.996471 
L 143.542047 418.22267 
L 143.483398 418.448869 
L 143.426591 418.675067 
L 143.37154 418.883866 
L 143.318165 419.092665 
L 143.26639 419.284064 
L 143.216145 419.475462 
L 143.167362 419.666861 
L 143.11998 419.85826 
L 143.073938 420.032259 
L 143.02918 420.206258 
L 142.985653 420.380257 
L 142.943308 420.536856 
L 142.902097 420.710855 
L 142.861974 420.867454 
L 142.822898 421.006653 
L 142.784827 421.163252 
L 142.747724 421.302451 
L 142.711552 421.44165 
L 142.676277 421.580849 
L 142.641865 421.720049 
L 142.608285 421.859248 
L 142.575508 421.981047 
L 142.543505 422.102846 
L 142.512248 422.242045 
L 142.481713 422.346445 
L 142.451874 422.468244 
L 142.422708 422.590043 
L 142.394192 422.694443 
L 142.366305 422.816242 
L 142.339026 422.920641 
L 142.312336 423.025041 
L 142.286215 423.12944 
L 142.260646 423.233839 
L 142.235612 423.320839 
L 142.211095 423.425238 
L 142.18708 423.529637 
L 142.163552 423.616637 
L 142.140496 423.703636 
" style="fill:none;stroke:#1f77b4;stroke-linecap:square;stroke-width:1.5;"/>
   </g>
   <g id="patch_3">
    <path d="M 126 441 
L 126 60.48 
" style="fill:none;stroke:#000000;stroke-linecap:square;stroke-linejoin:miter;stroke-width:0.8;"/>
   </g>
   <g id="patch_4">
    <path d="M 481.090909 441 
L 481.090909 60.48 
" style="fill:none;stroke:#000000;stroke-linecap:square;stroke-linejoin:miter;stroke-width:0.8;"/>
   </g>
   <g id="patch_5">
    <path d="M 126 441 
L 481.090909 441 
" style="fill:none;stroke:#000000;stroke-linecap:square;stroke-linejoin:miter;stroke-width:0.8;"/>
   </g>
   <g id="patch_6">
    <path d="M 126 60.48 
L 481.090909 60.48 
" style="fill:none;stroke:#000000;stroke-linecap:square;stroke-linejoin:miter;stroke-width:0.8;"/>
   </g>
  </g>
  <g id="axes_2">
   <g id="patch_7">
    <path d="M 552.109091 441 
L 907.2 441 
L 907.2 60.48 
L 552.109091 60.48 
z
" style="fill:#ffffff;"/>
   </g>
   <g id="matplotlib.axis_3">
    <g id="xtick_9">
     <g id="line2d_19">
      <g>
       <use style="stroke:#000000;stroke-width:0.8;" x="565.973988" xlink:href="#m8b73a62c46" y="441"/>
      </g>
     </g>
     <g id="text_16">
      <!-- $\mathdefault{0.0}$ -->
      <defs>
       <path d="M 10.6875 12.40625 
L 21 12.40625 
L 21 0 
L 10.6875 0 
z
" id="DejaVuSans-46"/>
      </defs>
      <g transform="translate(556.373988 457.118125)scale(0.12 -0.12)">
       <use transform="translate(0 0.78125)" xlink:href="#DejaVuSans-48"/>
       <use transform="translate(63.623047 0.78125)" xlink:href="#DejaVuSans-46"/>
       <use transform="translate(95.410156 0.78125)" xlink:href="#DejaVuSans-48"/>
      </g>
     </g>
    </g>
    <g id="xtick_10">
     <g id="line2d_20">
      <g>
       <use style="stroke:#000000;stroke-width:0.8;" x="630.991091" xlink:href="#m8b73a62c46" y="441"/>
      </g>
     </g>
     <g id="text_17">
      <!-- $\mathdefault{0.2}$ -->
      <g transform="translate(621.451091 457.118125)scale(0.12 -0.12)">
       <use transform="translate(0 0.78125)" xlink:href="#DejaVuSans-48"/>
       <use transform="translate(63.623047 0.78125)" xlink:href="#DejaVuSans-46"/>
       <use transform="translate(95.332031 0.78125)" xlink:href="#DejaVuSans-50"/>
      </g>
     </g>
    </g>
    <g id="xtick_11">
     <g id="line2d_21">
      <g>
       <use style="stroke:#000000;stroke-width:0.8;" x="696.008195" xlink:href="#m8b73a62c46" y="441"/>
      </g>
     </g>
     <g id="text_18">
      <!-- $\mathdefault{0.4}$ -->
      <g transform="translate(686.408195 457.118125)scale(0.12 -0.12)">
       <use transform="translate(0 0.78125)" xlink:href="#DejaVuSans-48"/>
       <use transform="translate(63.623047 0.78125)" xlink:href="#DejaVuSans-46"/>
       <use transform="translate(95.410156 0.78125)" xlink:href="#DejaVuSans-52"/>
      </g>
     </g>
    </g>
    <g id="xtick_12">
     <g id="line2d_22">
      <g>
       <use style="stroke:#000000;stroke-width:0.8;" x="761.025298" xlink:href="#m8b73a62c46" y="441"/>
      </g>
     </g>
     <g id="text_19">
      <!-- $\mathdefault{0.6}$ -->
      <g transform="translate(751.425298 457.118125)scale(0.12 -0.12)">
       <use transform="translate(0 0.78125)" xlink:href="#DejaVuSans-48"/>
       <use transform="translate(63.623047 0.78125)" xlink:href="#DejaVuSans-46"/>
       <use transform="translate(95.410156 0.78125)" xlink:href="#DejaVuSans-54"/>
      </g>
     </g>
    </g>
    <g id="xtick_13">
     <g id="line2d_23">
      <g>
       <use style="stroke:#000000;stroke-width:0.8;" x="826.042401" xlink:href="#m8b73a62c46" y="441"/>
      </g>
     </g>
     <g id="text_20">
      <!-- $\mathdefault{0.8}$ -->
      <g transform="translate(816.442401 457.118125)scale(0.12 -0.12)">
       <use transform="translate(0 0.78125)" xlink:href="#DejaVuSans-48"/>
       <use transform="translate(63.623047 0.78125)" xlink:href="#DejaVuSans-46"/>
       <use transform="translate(95.378906 0.78125)" xlink:href="#DejaVuSans-56"/>
      </g>
     </g>
    </g>
    <g id="xtick_14">
     <g id="line2d_24">
      <g>
       <use style="stroke:#000000;stroke-width:0.8;" x="891.059504" xlink:href="#m8b73a62c46" y="441"/>
      </g>
     </g>
     <g id="text_21">
      <!-- $\mathdefault{1.0}$ -->
      <g transform="translate(881.459504 457.118125)scale(0.12 -0.12)">
       <use transform="translate(0 0.78125)" xlink:href="#DejaVuSans-49"/>
       <use transform="translate(63.623047 0.78125)" xlink:href="#DejaVuSans-46"/>
       <use transform="translate(95.410156 0.78125)" xlink:href="#DejaVuSans-48"/>
      </g>
     </g>
    </g>
    <g id="text_22">
     <!-- $J$(bare Kondo coupling in units of t) -->
     <g transform="translate(599.229545 475.01375)scale(0.15 -0.15)">
      <use transform="translate(0 0.015625)" xlink:href="#DejaVuSans-Oblique-74"/>
      <use transform="translate(29.492188 0.015625)" xlink:href="#DejaVuSans-40"/>
      <use transform="translate(68.505859 0.015625)" xlink:href="#DejaVuSans-98"/>
      <use transform="translate(131.982422 0.015625)" xlink:href="#DejaVuSans-97"/>
      <use transform="translate(193.261719 0.015625)" xlink:href="#DejaVuSans-114"/>
      <use transform="translate(234.375 0.015625)" xlink:href="#DejaVuSans-101"/>
      <use transform="translate(295.898438 0.015625)" xlink:href="#DejaVuSans-32"/>
      <use transform="translate(327.685547 0.015625)" xlink:href="#DejaVuSans-75"/>
      <use transform="translate(393.261719 0.015625)" xlink:href="#DejaVuSans-111"/>
      <use transform="translate(454.443359 0.015625)" xlink:href="#DejaVuSans-110"/>
      <use transform="translate(517.822266 0.015625)" xlink:href="#DejaVuSans-100"/>
      <use transform="translate(581.298828 0.015625)" xlink:href="#DejaVuSans-111"/>
      <use transform="translate(642.480469 0.015625)" xlink:href="#DejaVuSans-32"/>
      <use transform="translate(674.267578 0.015625)" xlink:href="#DejaVuSans-99"/>
      <use transform="translate(729.248047 0.015625)" xlink:href="#DejaVuSans-111"/>
      <use transform="translate(790.429688 0.015625)" xlink:href="#DejaVuSans-117"/>
      <use transform="translate(853.808594 0.015625)" xlink:href="#DejaVuSans-112"/>
      <use transform="translate(917.285156 0.015625)" xlink:href="#DejaVuSans-108"/>
      <use transform="translate(945.068359 0.015625)" xlink:href="#DejaVuSans-105"/>
      <use transform="translate(972.851562 0.015625)" xlink:href="#DejaVuSans-110"/>
      <use transform="translate(1036.230469 0.015625)" xlink:href="#DejaVuSans-103"/>
      <use transform="translate(1099.707031 0.015625)" xlink:href="#DejaVuSans-32"/>
      <use transform="translate(1131.494141 0.015625)" xlink:href="#DejaVuSans-105"/>
      <use transform="translate(1159.277344 0.015625)" xlink:href="#DejaVuSans-110"/>
      <use transform="translate(1222.65625 0.015625)" xlink:href="#DejaVuSans-32"/>
      <use transform="translate(1254.443359 0.015625)" xlink:href="#DejaVuSans-117"/>
      <use transform="translate(1317.822266 0.015625)" xlink:href="#DejaVuSans-110"/>
      <use transform="translate(1381.201172 0.015625)" xlink:href="#DejaVuSans-105"/>
      <use transform="translate(1408.984375 0.015625)" xlink:href="#DejaVuSans-116"/>
      <use transform="translate(1448.193359 0.015625)" xlink:href="#DejaVuSans-115"/>
      <use transform="translate(1500.292969 0.015625)" xlink:href="#DejaVuSans-32"/>
      <use transform="translate(1532.080078 0.015625)" xlink:href="#DejaVuSans-111"/>
      <use transform="translate(1593.261719 0.015625)" xlink:href="#DejaVuSans-102"/>
      <use transform="translate(1628.466797 0.015625)" xlink:href="#DejaVuSans-32"/>
      <use transform="translate(1660.253906 0.015625)" xlink:href="#DejaVuSans-116"/>
      <use transform="translate(1699.462891 0.015625)" xlink:href="#DejaVuSans-41"/>
     </g>
    </g>
   </g>
   <g id="matplotlib.axis_4">
    <g id="ytick_10">
     <g id="line2d_25">
      <g>
       <use style="stroke:#000000;stroke-width:0.8;" x="552.109091" xlink:href="#m2685c5d18e" y="400.561491"/>
      </g>
     </g>
     <g id="text_23">
      <!-- $\mathdefault{0.2}$ -->
      <g transform="translate(526.029091 405.120553)scale(0.12 -0.12)">
       <use transform="translate(0 0.78125)" xlink:href="#DejaVuSans-48"/>
       <use transform="translate(63.623047 0.78125)" xlink:href="#DejaVuSans-46"/>
       <use transform="translate(95.332031 0.78125)" xlink:href="#DejaVuSans-50"/>
      </g>
     </g>
    </g>
    <g id="ytick_11">
     <g id="line2d_26">
      <g>
       <use style="stroke:#000000;stroke-width:0.8;" x="552.109091" xlink:href="#m2685c5d18e" y="333.94143"/>
      </g>
     </g>
     <g id="text_24">
      <!-- $\mathdefault{0.4}$ -->
      <g transform="translate(525.909091 338.500493)scale(0.12 -0.12)">
       <use transform="translate(0 0.78125)" xlink:href="#DejaVuSans-48"/>
       <use transform="translate(63.623047 0.78125)" xlink:href="#DejaVuSans-46"/>
       <use transform="translate(95.410156 0.78125)" xlink:href="#DejaVuSans-52"/>
      </g>
     </g>
    </g>
    <g id="ytick_12">
     <g id="line2d_27">
      <g>
       <use style="stroke:#000000;stroke-width:0.8;" x="552.109091" xlink:href="#m2685c5d18e" y="267.321369"/>
      </g>
     </g>
     <g id="text_25">
      <!-- $\mathdefault{0.6}$ -->
      <g transform="translate(525.909091 271.880432)scale(0.12 -0.12)">
       <use transform="translate(0 0.78125)" xlink:href="#DejaVuSans-48"/>
       <use transform="translate(63.623047 0.78125)" xlink:href="#DejaVuSans-46"/>
       <use transform="translate(95.410156 0.78125)" xlink:href="#DejaVuSans-54"/>
      </g>
     </g>
    </g>
    <g id="ytick_13">
     <g id="line2d_28">
      <g>
       <use style="stroke:#000000;stroke-width:0.8;" x="552.109091" xlink:href="#m2685c5d18e" y="200.701309"/>
      </g>
     </g>
     <g id="text_26">
      <!-- $\mathdefault{0.8}$ -->
      <g transform="translate(525.909091 205.260371)scale(0.12 -0.12)">
       <use transform="translate(0 0.78125)" xlink:href="#DejaVuSans-48"/>
       <use transform="translate(63.623047 0.78125)" xlink:href="#DejaVuSans-46"/>
       <use transform="translate(95.378906 0.78125)" xlink:href="#DejaVuSans-56"/>
      </g>
     </g>
    </g>
    <g id="ytick_14">
     <g id="line2d_29">
      <g>
       <use style="stroke:#000000;stroke-width:0.8;" x="552.109091" xlink:href="#m2685c5d18e" y="134.081248"/>
      </g>
     </g>
     <g id="text_27">
      <!-- $\mathdefault{1.0}$ -->
      <g transform="translate(525.909091 138.64031)scale(0.12 -0.12)">
       <use transform="translate(0 0.78125)" xlink:href="#DejaVuSans-49"/>
       <use transform="translate(63.623047 0.78125)" xlink:href="#DejaVuSans-46"/>
       <use transform="translate(95.410156 0.78125)" xlink:href="#DejaVuSans-48"/>
      </g>
     </g>
    </g>
    <g id="ytick_15">
     <g id="line2d_30">
      <g>
       <use style="stroke:#000000;stroke-width:0.8;" x="552.109091" xlink:href="#m2685c5d18e" y="67.461187"/>
      </g>
     </g>
     <g id="text_28">
      <!-- $\mathdefault{1.2}$ -->
      <g transform="translate(526.029091 72.02025)scale(0.12 -0.12)">
       <use transform="translate(0 0.78125)" xlink:href="#DejaVuSans-49"/>
       <use transform="translate(63.623047 0.78125)" xlink:href="#DejaVuSans-46"/>
       <use transform="translate(95.332031 0.78125)" xlink:href="#DejaVuSans-50"/>
      </g>
     </g>
    </g>
    <g id="text_29">
     <!-- $J*$(ren. Kondo coupling in units of t) -->
     <defs>
      <path d="M 47.015625 60.890625 
L 29.5 51.421875 
L 47.015625 41.890625 
L 44.1875 37.109375 
L 27.78125 47.015625 
L 27.78125 28.609375 
L 22.21875 28.609375 
L 22.21875 47.015625 
L 5.8125 37.109375 
L 2.984375 41.890625 
L 20.515625 51.421875 
L 2.984375 60.890625 
L 5.8125 65.71875 
L 22.21875 55.8125 
L 22.21875 74.21875 
L 27.78125 74.21875 
L 27.78125 55.8125 
L 44.1875 65.71875 
z
" id="DejaVuSans-42"/>
     </defs>
     <g transform="translate(518.759091 385.59)rotate(-90)scale(0.15 -0.15)">
      <use transform="translate(0 0.015625)" xlink:href="#DejaVuSans-Oblique-74"/>
      <use transform="translate(48.974609 0.015625)" xlink:href="#DejaVuSans-42"/>
      <use transform="translate(118.457031 0.015625)" xlink:href="#DejaVuSans-40"/>
      <use transform="translate(157.470703 0.015625)" xlink:href="#DejaVuSans-114"/>
      <use transform="translate(198.583984 0.015625)" xlink:href="#DejaVuSans-101"/>
      <use transform="translate(260.107422 0.015625)" xlink:href="#DejaVuSans-110"/>
      <use transform="translate(323.486328 0.015625)" xlink:href="#DejaVuSans-46"/>
      <use transform="translate(355.273438 0.015625)" xlink:href="#DejaVuSans-32"/>
      <use transform="translate(387.060547 0.015625)" xlink:href="#DejaVuSans-75"/>
      <use transform="translate(452.636719 0.015625)" xlink:href="#DejaVuSans-111"/>
      <use transform="translate(513.818359 0.015625)" xlink:href="#DejaVuSans-110"/>
      <use transform="translate(577.197266 0.015625)" xlink:href="#DejaVuSans-100"/>
      <use transform="translate(640.673828 0.015625)" xlink:href="#DejaVuSans-111"/>
      <use transform="translate(701.855469 0.015625)" xlink:href="#DejaVuSans-32"/>
      <use transform="translate(733.642578 0.015625)" xlink:href="#DejaVuSans-99"/>
      <use transform="translate(788.623047 0.015625)" xlink:href="#DejaVuSans-111"/>
      <use transform="translate(849.804688 0.015625)" xlink:href="#DejaVuSans-117"/>
      <use transform="translate(913.183594 0.015625)" xlink:href="#DejaVuSans-112"/>
      <use transform="translate(976.660156 0.015625)" xlink:href="#DejaVuSans-108"/>
      <use transform="translate(1004.443359 0.015625)" xlink:href="#DejaVuSans-105"/>
      <use transform="translate(1032.226562 0.015625)" xlink:href="#DejaVuSans-110"/>
      <use transform="translate(1095.605469 0.015625)" xlink:href="#DejaVuSans-103"/>
      <use transform="translate(1159.082031 0.015625)" xlink:href="#DejaVuSans-32"/>
      <use transform="translate(1190.869141 0.015625)" xlink:href="#DejaVuSans-105"/>
      <use transform="translate(1218.652344 0.015625)" xlink:href="#DejaVuSans-110"/>
      <use transform="translate(1282.03125 0.015625)" xlink:href="#DejaVuSans-32"/>
      <use transform="translate(1313.818359 0.015625)" xlink:href="#DejaVuSans-117"/>
      <use transform="translate(1377.197266 0.015625)" xlink:href="#DejaVuSans-110"/>
      <use transform="translate(1440.576172 0.015625)" xlink:href="#DejaVuSans-105"/>
      <use transform="translate(1468.359375 0.015625)" xlink:href="#DejaVuSans-116"/>
      <use transform="translate(1507.568359 0.015625)" xlink:href="#DejaVuSans-115"/>
      <use transform="translate(1559.667969 0.015625)" xlink:href="#DejaVuSans-32"/>
      <use transform="translate(1591.455078 0.015625)" xlink:href="#DejaVuSans-111"/>
      <use transform="translate(1652.636719 0.015625)" xlink:href="#DejaVuSans-102"/>
      <use transform="translate(1687.841797 0.015625)" xlink:href="#DejaVuSans-32"/>
      <use transform="translate(1719.628906 0.015625)" xlink:href="#DejaVuSans-116"/>
      <use transform="translate(1758.837891 0.015625)" xlink:href="#DejaVuSans-41"/>
     </g>
    </g>
    <g id="text_30">
     <!-- $\times\mathdefault{10^{4}}\mathdefault{}$ -->
     <g transform="translate(552.109091 57.48)scale(0.1 -0.1)">
      <use transform="translate(0 0.684375)" xlink:href="#DejaVuSans-215"/>
      <use transform="translate(83.789062 0.684375)" xlink:href="#DejaVuSans-49"/>
      <use transform="translate(147.412109 0.684375)" xlink:href="#DejaVuSans-48"/>
      <use transform="translate(211.992188 38.965625)scale(0.7)" xlink:href="#DejaVuSans-52"/>
     </g>
    </g>
   </g>
   <g id="line2d_31">
    <path clip-path="url(#p05e3faa946)" d="M 568.249587 423.703636 
L 571.510293 377.557733 
L 574.770999 342.372845 
L 578.031705 314.33574 
L 581.292412 291.363159 
L 584.553118 272.176058 
L 587.813824 255.863088 
L 591.07453 241.828585 
L 594.335237 229.603842 
L 597.595943 218.869193 
L 600.856649 209.370313 
L 604.117355 200.899265 
L 607.378062 193.273344 
L 610.638768 186.425177 
L 613.899474 180.195526 
L 617.16018 174.50057 
L 620.420887 169.311212 
L 623.681593 164.554619 
L 626.942299 160.148378 
L 630.203005 156.075036 
L 633.463711 152.313851 
L 636.724418 148.803523 
L 639.985124 145.516368 
L 643.24583 142.460853 
L 646.506536 139.606164 
L 649.767243 136.919561 
L 653.027949 134.366596 
L 656.288655 131.990798 
L 659.549361 129.756601 
L 662.810068 127.627045 
L 666.070774 125.604512 
L 669.33148 123.691278 
L 672.592186 121.848439 
L 675.852893 120.159963 
L 679.113599 118.503938 
L 682.374305 116.92268 
L 685.635011 115.459297 
L 688.895718 114.031299 
L 692.156424 112.639216 
L 695.41713 111.326014 
L 698.677836 110.092703 
L 701.938542 108.897467 
L 705.199249 107.740759 
L 708.459955 106.623018 
L 711.720661 105.58787 
L 714.981367 104.54946 
L 718.242074 103.551245 
L 721.50278 102.593608 
L 724.763486 101.676917 
L 728.024192 100.801526 
L 731.284899 99.967772 
L 734.545605 99.131936 
L 737.806311 98.338163 
L 741.067017 97.586764 
L 744.327724 96.833684 
L 747.58843 96.123363 
L 750.849136 95.411547 
L 754.109842 94.742858 
L 757.370548 94.072848 
L 760.631255 93.446311 
L 763.891961 92.818619 
L 767.152667 92.234726 
L 770.413373 91.649832 
L 773.67408 91.063937 
L 776.934786 90.52222 
L 780.195492 89.979646 
L 783.456198 89.481533 
L 786.716905 88.982697 
L 789.977611 88.483138 
L 793.238317 87.982854 
L 796.499023 87.527421 
L 799.75973 87.071387 
L 803.020436 86.614752 
L 806.281142 86.203265 
L 809.541848 85.745484 
L 812.802554 85.332965 
L 816.063261 84.96587 
L 819.323967 84.552425 
L 822.584673 84.184506 
L 825.845379 83.816199 
L 829.106086 83.447502 
L 832.366792 83.078416 
L 835.627498 82.70894 
L 838.888204 82.385329 
L 842.148911 82.061418 
L 845.409617 81.690868 
L 848.670323 81.412699 
L 851.931029 81.087889 
L 855.191736 80.762779 
L 858.452442 80.483873 
L 861.713148 80.158205 
L 864.973854 79.87882 
L 868.23456 79.599214 
L 871.495267 79.319387 
L 874.755973 79.039337 
L 878.016679 78.805793 
L 881.277385 78.525336 
L 884.538092 78.244657 
L 887.798798 78.010588 
L 891.059504 77.776364 
" style="fill:none;stroke:#1f77b4;stroke-linecap:square;stroke-width:1.5;"/>
   </g>
   <g id="patch_8">
    <path d="M 552.109091 441 
L 552.109091 60.48 
" style="fill:none;stroke:#000000;stroke-linecap:square;stroke-linejoin:miter;stroke-width:0.8;"/>
   </g>
   <g id="patch_9">
    <path d="M 907.2 441 
L 907.2 60.48 
" style="fill:none;stroke:#000000;stroke-linecap:square;stroke-linejoin:miter;stroke-width:0.8;"/>
   </g>
   <g id="patch_10">
    <path d="M 552.109091 441 
L 907.2 441 
" style="fill:none;stroke:#000000;stroke-linecap:square;stroke-linejoin:miter;stroke-width:0.8;"/>
   </g>
   <g id="patch_11">
    <path d="M 552.109091 60.48 
L 907.2 60.48 
" style="fill:none;stroke:#000000;stroke-linecap:square;stroke-linejoin:miter;stroke-width:0.8;"/>
   </g>
  </g>
 </g>
 <defs>
  <clipPath id="pbb31ef4fe5">
   <rect height="380.52" width="355.090909" x="126" y="60.48"/>
  </clipPath>
  <clipPath id="p05e3faa946">
   <rect height="380.52" width="355.090909" x="552.109091" y="60.48"/>
  </clipPath>
 </defs>
</svg>
