<?xml version="1.0" encoding="utf-8" standalone="no"?>
<!DOCTYPE svg PUBLIC "-//W3C//DTD SVG 1.1//EN"
  "http://www.w3.org/Graphics/SVG/1.1/DTD/svg11.dtd">
<!-- Created with matplotlib (https://matplotlib.org/) -->
<svg height="504pt" version="1.1" viewBox="0 0 1008 504" width="1008pt" xmlns="http://www.w3.org/2000/svg" xmlns:xlink="http://www.w3.org/1999/xlink">
 <defs>
  <style type="text/css">
*{stroke-linecap:butt;stroke-linejoin:round;}
  </style>
 </defs>
 <g id="figure_1">
  <g id="patch_1">
   <path d="M 0 504 
L 1008 504 
L 1008 0 
L 0 0 
z
" style="fill:#ffffff;"/>
  </g>
  <g id="axes_1">
   <g id="patch_2">
    <path d="M 126 441 
L 481.090909 441 
L 481.090909 60.48 
L 126 60.48 
z
" style="fill:#ffffff;"/>
   </g>
   <g id="matplotlib.axis_1">
    <g id="xtick_1">
     <g id="line2d_1">
      <defs>
       <path d="M 0 0 
L 0 3.5 
" id="meb6c8e54e4" style="stroke:#000000;stroke-width:0.8;"/>
      </defs>
      <g>
       <use style="stroke:#000000;stroke-width:0.8;" x="178.008264" xlink:href="#meb6c8e54e4" y="441"/>
      </g>
     </g>
     <g id="text_1">
      <!-- 0.2 -->
      <defs>
       <path d="M 31.78125 66.40625 
Q 24.171875 66.40625 20.328125 58.90625 
Q 16.5 51.421875 16.5 36.375 
Q 16.5 21.390625 20.328125 13.890625 
Q 24.171875 6.390625 31.78125 6.390625 
Q 39.453125 6.390625 43.28125 13.890625 
Q 47.125 21.390625 47.125 36.375 
Q 47.125 51.421875 43.28125 58.90625 
Q 39.453125 66.40625 31.78125 66.40625 
z
M 31.78125 74.21875 
Q 44.046875 74.21875 50.515625 64.515625 
Q 56.984375 54.828125 56.984375 36.375 
Q 56.984375 17.96875 50.515625 8.265625 
Q 44.046875 -1.421875 31.78125 -1.421875 
Q 19.53125 -1.421875 13.0625 8.265625 
Q 6.59375 17.96875 6.59375 36.375 
Q 6.59375 54.828125 13.0625 64.515625 
Q 19.53125 74.21875 31.78125 74.21875 
z
" id="DejaVuSans-48"/>
       <path d="M 10.6875 12.40625 
L 21 12.40625 
L 21 0 
L 10.6875 0 
z
" id="DejaVuSans-46"/>
       <path d="M 19.1875 8.296875 
L 53.609375 8.296875 
L 53.609375 0 
L 7.328125 0 
L 7.328125 8.296875 
Q 12.9375 14.109375 22.625 23.890625 
Q 32.328125 33.6875 34.8125 36.53125 
Q 39.546875 41.84375 41.421875 45.53125 
Q 43.3125 49.21875 43.3125 52.78125 
Q 43.3125 58.59375 39.234375 62.25 
Q 35.15625 65.921875 28.609375 65.921875 
Q 23.96875 65.921875 18.8125 64.3125 
Q 13.671875 62.703125 7.8125 59.421875 
L 7.8125 69.390625 
Q 13.765625 71.78125 18.9375 73 
Q 24.125 74.21875 28.421875 74.21875 
Q 39.75 74.21875 46.484375 68.546875 
Q 53.21875 62.890625 53.21875 53.421875 
Q 53.21875 48.921875 51.53125 44.890625 
Q 49.859375 40.875 45.40625 35.40625 
Q 44.1875 33.984375 37.640625 27.21875 
Q 31.109375 20.453125 19.1875 8.296875 
z
" id="DejaVuSans-50"/>
      </defs>
      <g transform="translate(168.466389 457.118125)scale(0.12 -0.12)">
       <use xlink:href="#DejaVuSans-48"/>
       <use x="63.623047" xlink:href="#DejaVuSans-46"/>
       <use x="95.410156" xlink:href="#DejaVuSans-50"/>
      </g>
     </g>
    </g>
    <g id="xtick_2">
     <g id="line2d_2">
      <g>
       <use style="stroke:#000000;stroke-width:0.8;" x="249.743802" xlink:href="#meb6c8e54e4" y="441"/>
      </g>
     </g>
     <g id="text_2">
      <!-- 0.4 -->
      <defs>
       <path d="M 37.796875 64.3125 
L 12.890625 25.390625 
L 37.796875 25.390625 
z
M 35.203125 72.90625 
L 47.609375 72.90625 
L 47.609375 25.390625 
L 58.015625 25.390625 
L 58.015625 17.1875 
L 47.609375 17.1875 
L 47.609375 0 
L 37.796875 0 
L 37.796875 17.1875 
L 4.890625 17.1875 
L 4.890625 26.703125 
z
" id="DejaVuSans-52"/>
      </defs>
      <g transform="translate(240.201927 457.118125)scale(0.12 -0.12)">
       <use xlink:href="#DejaVuSans-48"/>
       <use x="63.623047" xlink:href="#DejaVuSans-46"/>
       <use x="95.410156" xlink:href="#DejaVuSans-52"/>
      </g>
     </g>
    </g>
    <g id="xtick_3">
     <g id="line2d_3">
      <g>
       <use style="stroke:#000000;stroke-width:0.8;" x="321.479339" xlink:href="#meb6c8e54e4" y="441"/>
      </g>
     </g>
     <g id="text_3">
      <!-- 0.6 -->
      <defs>
       <path d="M 33.015625 40.375 
Q 26.375 40.375 22.484375 35.828125 
Q 18.609375 31.296875 18.609375 23.390625 
Q 18.609375 15.53125 22.484375 10.953125 
Q 26.375 6.390625 33.015625 6.390625 
Q 39.65625 6.390625 43.53125 10.953125 
Q 47.40625 15.53125 47.40625 23.390625 
Q 47.40625 31.296875 43.53125 35.828125 
Q 39.65625 40.375 33.015625 40.375 
z
M 52.59375 71.296875 
L 52.59375 62.3125 
Q 48.875 64.0625 45.09375 64.984375 
Q 41.3125 65.921875 37.59375 65.921875 
Q 27.828125 65.921875 22.671875 59.328125 
Q 17.53125 52.734375 16.796875 39.40625 
Q 19.671875 43.65625 24.015625 45.921875 
Q 28.375 48.1875 33.59375 48.1875 
Q 44.578125 48.1875 50.953125 41.515625 
Q 57.328125 34.859375 57.328125 23.390625 
Q 57.328125 12.15625 50.6875 5.359375 
Q 44.046875 -1.421875 33.015625 -1.421875 
Q 20.359375 -1.421875 13.671875 8.265625 
Q 6.984375 17.96875 6.984375 36.375 
Q 6.984375 53.65625 15.1875 63.9375 
Q 23.390625 74.21875 37.203125 74.21875 
Q 40.921875 74.21875 44.703125 73.484375 
Q 48.484375 72.75 52.59375 71.296875 
z
" id="DejaVuSans-54"/>
      </defs>
      <g transform="translate(311.937464 457.118125)scale(0.12 -0.12)">
       <use xlink:href="#DejaVuSans-48"/>
       <use x="63.623047" xlink:href="#DejaVuSans-46"/>
       <use x="95.410156" xlink:href="#DejaVuSans-54"/>
      </g>
     </g>
    </g>
    <g id="xtick_4">
     <g id="line2d_4">
      <g>
       <use style="stroke:#000000;stroke-width:0.8;" x="393.214876" xlink:href="#meb6c8e54e4" y="441"/>
      </g>
     </g>
     <g id="text_4">
      <!-- 0.8 -->
      <defs>
       <path d="M 31.78125 34.625 
Q 24.75 34.625 20.71875 30.859375 
Q 16.703125 27.09375 16.703125 20.515625 
Q 16.703125 13.921875 20.71875 10.15625 
Q 24.75 6.390625 31.78125 6.390625 
Q 38.8125 6.390625 42.859375 10.171875 
Q 46.921875 13.96875 46.921875 20.515625 
Q 46.921875 27.09375 42.890625 30.859375 
Q 38.875 34.625 31.78125 34.625 
z
M 21.921875 38.8125 
Q 15.578125 40.375 12.03125 44.71875 
Q 8.5 49.078125 8.5 55.328125 
Q 8.5 64.0625 14.71875 69.140625 
Q 20.953125 74.21875 31.78125 74.21875 
Q 42.671875 74.21875 48.875 69.140625 
Q 55.078125 64.0625 55.078125 55.328125 
Q 55.078125 49.078125 51.53125 44.71875 
Q 48 40.375 41.703125 38.8125 
Q 48.828125 37.15625 52.796875 32.3125 
Q 56.78125 27.484375 56.78125 20.515625 
Q 56.78125 9.90625 50.3125 4.234375 
Q 43.84375 -1.421875 31.78125 -1.421875 
Q 19.734375 -1.421875 13.25 4.234375 
Q 6.78125 9.90625 6.78125 20.515625 
Q 6.78125 27.484375 10.78125 32.3125 
Q 14.796875 37.15625 21.921875 38.8125 
z
M 18.3125 54.390625 
Q 18.3125 48.734375 21.84375 45.5625 
Q 25.390625 42.390625 31.78125 42.390625 
Q 38.140625 42.390625 41.71875 45.5625 
Q 45.3125 48.734375 45.3125 54.390625 
Q 45.3125 60.0625 41.71875 63.234375 
Q 38.140625 66.40625 31.78125 66.40625 
Q 25.390625 66.40625 21.84375 63.234375 
Q 18.3125 60.0625 18.3125 54.390625 
z
" id="DejaVuSans-56"/>
      </defs>
      <g transform="translate(383.673001 457.118125)scale(0.12 -0.12)">
       <use xlink:href="#DejaVuSans-48"/>
       <use x="63.623047" xlink:href="#DejaVuSans-46"/>
       <use x="95.410156" xlink:href="#DejaVuSans-56"/>
      </g>
     </g>
    </g>
    <g id="xtick_5">
     <g id="line2d_5">
      <g>
       <use style="stroke:#000000;stroke-width:0.8;" x="464.950413" xlink:href="#meb6c8e54e4" y="441"/>
      </g>
     </g>
     <g id="text_5">
      <!-- 1.0 -->
      <defs>
       <path d="M 12.40625 8.296875 
L 28.515625 8.296875 
L 28.515625 63.921875 
L 10.984375 60.40625 
L 10.984375 69.390625 
L 28.421875 72.90625 
L 38.28125 72.90625 
L 38.28125 8.296875 
L 54.390625 8.296875 
L 54.390625 0 
L 12.40625 0 
z
" id="DejaVuSans-49"/>
      </defs>
      <g transform="translate(455.408538 457.118125)scale(0.12 -0.12)">
       <use xlink:href="#DejaVuSans-49"/>
       <use x="63.623047" xlink:href="#DejaVuSans-46"/>
       <use x="95.410156" xlink:href="#DejaVuSans-48"/>
      </g>
     </g>
    </g>
    <g id="text_6">
     <!-- $1/J$(bare Kondo coupling in units of t) -->
     <defs>
      <path d="M 25.390625 72.90625 
L 33.6875 72.90625 
L 8.296875 -9.28125 
L 0 -9.28125 
z
" id="DejaVuSans-47"/>
      <path d="M 16.703125 72.90625 
L 26.609375 72.90625 
L 13.375 5.078125 
Q 10.796875 -8.15625 4.65625 -14.078125 
Q -1.46875 -20.015625 -12.5 -20.015625 
L -16.40625 -20.015625 
L -14.796875 -11.71875 
L -11.71875 -11.71875 
Q -5.125 -11.71875 -1.703125 -7.953125 
Q 1.703125 -4.203125 3.515625 5.078125 
z
" id="DejaVuSans-Oblique-74"/>
      <path d="M 31 75.875 
Q 24.46875 64.65625 21.28125 53.65625 
Q 18.109375 42.671875 18.109375 31.390625 
Q 18.109375 20.125 21.3125 9.0625 
Q 24.515625 -2 31 -13.1875 
L 23.1875 -13.1875 
Q 15.875 -1.703125 12.234375 9.375 
Q 8.59375 20.453125 8.59375 31.390625 
Q 8.59375 42.28125 12.203125 53.3125 
Q 15.828125 64.359375 23.1875 75.875 
z
" id="DejaVuSans-40"/>
      <path d="M 48.6875 27.296875 
Q 48.6875 37.203125 44.609375 42.84375 
Q 40.53125 48.484375 33.40625 48.484375 
Q 26.265625 48.484375 22.1875 42.84375 
Q 18.109375 37.203125 18.109375 27.296875 
Q 18.109375 17.390625 22.1875 11.75 
Q 26.265625 6.109375 33.40625 6.109375 
Q 40.53125 6.109375 44.609375 11.75 
Q 48.6875 17.390625 48.6875 27.296875 
z
M 18.109375 46.390625 
Q 20.953125 51.265625 25.265625 53.625 
Q 29.59375 56 35.59375 56 
Q 45.5625 56 51.78125 48.09375 
Q 58.015625 40.1875 58.015625 27.296875 
Q 58.015625 14.40625 51.78125 6.484375 
Q 45.5625 -1.421875 35.59375 -1.421875 
Q 29.59375 -1.421875 25.265625 0.953125 
Q 20.953125 3.328125 18.109375 8.203125 
L 18.109375 0 
L 9.078125 0 
L 9.078125 75.984375 
L 18.109375 75.984375 
z
" id="DejaVuSans-98"/>
      <path d="M 34.28125 27.484375 
Q 23.390625 27.484375 19.1875 25 
Q 14.984375 22.515625 14.984375 16.5 
Q 14.984375 11.71875 18.140625 8.90625 
Q 21.296875 6.109375 26.703125 6.109375 
Q 34.1875 6.109375 38.703125 11.40625 
Q 43.21875 16.703125 43.21875 25.484375 
L 43.21875 27.484375 
z
M 52.203125 31.203125 
L 52.203125 0 
L 43.21875 0 
L 43.21875 8.296875 
Q 40.140625 3.328125 35.546875 0.953125 
Q 30.953125 -1.421875 24.3125 -1.421875 
Q 15.921875 -1.421875 10.953125 3.296875 
Q 6 8.015625 6 15.921875 
Q 6 25.140625 12.171875 29.828125 
Q 18.359375 34.515625 30.609375 34.515625 
L 43.21875 34.515625 
L 43.21875 35.40625 
Q 43.21875 41.609375 39.140625 45 
Q 35.0625 48.390625 27.6875 48.390625 
Q 23 48.390625 18.546875 47.265625 
Q 14.109375 46.140625 10.015625 43.890625 
L 10.015625 52.203125 
Q 14.9375 54.109375 19.578125 55.046875 
Q 24.21875 56 28.609375 56 
Q 40.484375 56 46.34375 49.84375 
Q 52.203125 43.703125 52.203125 31.203125 
z
" id="DejaVuSans-97"/>
      <path d="M 41.109375 46.296875 
Q 39.59375 47.171875 37.8125 47.578125 
Q 36.03125 48 33.890625 48 
Q 26.265625 48 22.1875 43.046875 
Q 18.109375 38.09375 18.109375 28.8125 
L 18.109375 0 
L 9.078125 0 
L 9.078125 54.6875 
L 18.109375 54.6875 
L 18.109375 46.1875 
Q 20.953125 51.171875 25.484375 53.578125 
Q 30.03125 56 36.53125 56 
Q 37.453125 56 38.578125 55.875 
Q 39.703125 55.765625 41.0625 55.515625 
z
" id="DejaVuSans-114"/>
      <path d="M 56.203125 29.59375 
L 56.203125 25.203125 
L 14.890625 25.203125 
Q 15.484375 15.921875 20.484375 11.0625 
Q 25.484375 6.203125 34.421875 6.203125 
Q 39.59375 6.203125 44.453125 7.46875 
Q 49.3125 8.734375 54.109375 11.28125 
L 54.109375 2.78125 
Q 49.265625 0.734375 44.1875 -0.34375 
Q 39.109375 -1.421875 33.890625 -1.421875 
Q 20.796875 -1.421875 13.15625 6.1875 
Q 5.515625 13.8125 5.515625 26.8125 
Q 5.515625 40.234375 12.765625 48.109375 
Q 20.015625 56 32.328125 56 
Q 43.359375 56 49.78125 48.890625 
Q 56.203125 41.796875 56.203125 29.59375 
z
M 47.21875 32.234375 
Q 47.125 39.59375 43.09375 43.984375 
Q 39.0625 48.390625 32.421875 48.390625 
Q 24.90625 48.390625 20.390625 44.140625 
Q 15.875 39.890625 15.1875 32.171875 
z
" id="DejaVuSans-101"/>
      <path id="DejaVuSans-32"/>
      <path d="M 9.8125 72.90625 
L 19.671875 72.90625 
L 19.671875 42.09375 
L 52.390625 72.90625 
L 65.09375 72.90625 
L 28.90625 38.921875 
L 67.671875 0 
L 54.6875 0 
L 19.671875 35.109375 
L 19.671875 0 
L 9.8125 0 
z
" id="DejaVuSans-75"/>
      <path d="M 30.609375 48.390625 
Q 23.390625 48.390625 19.1875 42.75 
Q 14.984375 37.109375 14.984375 27.296875 
Q 14.984375 17.484375 19.15625 11.84375 
Q 23.34375 6.203125 30.609375 6.203125 
Q 37.796875 6.203125 41.984375 11.859375 
Q 46.1875 17.53125 46.1875 27.296875 
Q 46.1875 37.015625 41.984375 42.703125 
Q 37.796875 48.390625 30.609375 48.390625 
z
M 30.609375 56 
Q 42.328125 56 49.015625 48.375 
Q 55.71875 40.765625 55.71875 27.296875 
Q 55.71875 13.875 49.015625 6.21875 
Q 42.328125 -1.421875 30.609375 -1.421875 
Q 18.84375 -1.421875 12.171875 6.21875 
Q 5.515625 13.875 5.515625 27.296875 
Q 5.515625 40.765625 12.171875 48.375 
Q 18.84375 56 30.609375 56 
z
" id="DejaVuSans-111"/>
      <path d="M 54.890625 33.015625 
L 54.890625 0 
L 45.90625 0 
L 45.90625 32.71875 
Q 45.90625 40.484375 42.875 44.328125 
Q 39.84375 48.1875 33.796875 48.1875 
Q 26.515625 48.1875 22.3125 43.546875 
Q 18.109375 38.921875 18.109375 30.90625 
L 18.109375 0 
L 9.078125 0 
L 9.078125 54.6875 
L 18.109375 54.6875 
L 18.109375 46.1875 
Q 21.34375 51.125 25.703125 53.5625 
Q 30.078125 56 35.796875 56 
Q 45.21875 56 50.046875 50.171875 
Q 54.890625 44.34375 54.890625 33.015625 
z
" id="DejaVuSans-110"/>
      <path d="M 45.40625 46.390625 
L 45.40625 75.984375 
L 54.390625 75.984375 
L 54.390625 0 
L 45.40625 0 
L 45.40625 8.203125 
Q 42.578125 3.328125 38.25 0.953125 
Q 33.9375 -1.421875 27.875 -1.421875 
Q 17.96875 -1.421875 11.734375 6.484375 
Q 5.515625 14.40625 5.515625 27.296875 
Q 5.515625 40.1875 11.734375 48.09375 
Q 17.96875 56 27.875 56 
Q 33.9375 56 38.25 53.625 
Q 42.578125 51.265625 45.40625 46.390625 
z
M 14.796875 27.296875 
Q 14.796875 17.390625 18.875 11.75 
Q 22.953125 6.109375 30.078125 6.109375 
Q 37.203125 6.109375 41.296875 11.75 
Q 45.40625 17.390625 45.40625 27.296875 
Q 45.40625 37.203125 41.296875 42.84375 
Q 37.203125 48.484375 30.078125 48.484375 
Q 22.953125 48.484375 18.875 42.84375 
Q 14.796875 37.203125 14.796875 27.296875 
z
" id="DejaVuSans-100"/>
      <path d="M 48.78125 52.59375 
L 48.78125 44.1875 
Q 44.96875 46.296875 41.140625 47.34375 
Q 37.3125 48.390625 33.40625 48.390625 
Q 24.65625 48.390625 19.8125 42.84375 
Q 14.984375 37.3125 14.984375 27.296875 
Q 14.984375 17.28125 19.8125 11.734375 
Q 24.65625 6.203125 33.40625 6.203125 
Q 37.3125 6.203125 41.140625 7.25 
Q 44.96875 8.296875 48.78125 10.40625 
L 48.78125 2.09375 
Q 45.015625 0.34375 40.984375 -0.53125 
Q 36.96875 -1.421875 32.421875 -1.421875 
Q 20.0625 -1.421875 12.78125 6.34375 
Q 5.515625 14.109375 5.515625 27.296875 
Q 5.515625 40.671875 12.859375 48.328125 
Q 20.21875 56 33.015625 56 
Q 37.15625 56 41.109375 55.140625 
Q 45.0625 54.296875 48.78125 52.59375 
z
" id="DejaVuSans-99"/>
      <path d="M 8.5 21.578125 
L 8.5 54.6875 
L 17.484375 54.6875 
L 17.484375 21.921875 
Q 17.484375 14.15625 20.5 10.265625 
Q 23.53125 6.390625 29.59375 6.390625 
Q 36.859375 6.390625 41.078125 11.03125 
Q 45.3125 15.671875 45.3125 23.6875 
L 45.3125 54.6875 
L 54.296875 54.6875 
L 54.296875 0 
L 45.3125 0 
L 45.3125 8.40625 
Q 42.046875 3.421875 37.71875 1 
Q 33.40625 -1.421875 27.6875 -1.421875 
Q 18.265625 -1.421875 13.375 4.4375 
Q 8.5 10.296875 8.5 21.578125 
z
M 31.109375 56 
z
" id="DejaVuSans-117"/>
      <path d="M 18.109375 8.203125 
L 18.109375 -20.796875 
L 9.078125 -20.796875 
L 9.078125 54.6875 
L 18.109375 54.6875 
L 18.109375 46.390625 
Q 20.953125 51.265625 25.265625 53.625 
Q 29.59375 56 35.59375 56 
Q 45.5625 56 51.78125 48.09375 
Q 58.015625 40.1875 58.015625 27.296875 
Q 58.015625 14.40625 51.78125 6.484375 
Q 45.5625 -1.421875 35.59375 -1.421875 
Q 29.59375 -1.421875 25.265625 0.953125 
Q 20.953125 3.328125 18.109375 8.203125 
z
M 48.6875 27.296875 
Q 48.6875 37.203125 44.609375 42.84375 
Q 40.53125 48.484375 33.40625 48.484375 
Q 26.265625 48.484375 22.1875 42.84375 
Q 18.109375 37.203125 18.109375 27.296875 
Q 18.109375 17.390625 22.1875 11.75 
Q 26.265625 6.109375 33.40625 6.109375 
Q 40.53125 6.109375 44.609375 11.75 
Q 48.6875 17.390625 48.6875 27.296875 
z
" id="DejaVuSans-112"/>
      <path d="M 9.421875 75.984375 
L 18.40625 75.984375 
L 18.40625 0 
L 9.421875 0 
z
" id="DejaVuSans-108"/>
      <path d="M 9.421875 54.6875 
L 18.40625 54.6875 
L 18.40625 0 
L 9.421875 0 
z
M 9.421875 75.984375 
L 18.40625 75.984375 
L 18.40625 64.59375 
L 9.421875 64.59375 
z
" id="DejaVuSans-105"/>
      <path d="M 45.40625 27.984375 
Q 45.40625 37.75 41.375 43.109375 
Q 37.359375 48.484375 30.078125 48.484375 
Q 22.859375 48.484375 18.828125 43.109375 
Q 14.796875 37.75 14.796875 27.984375 
Q 14.796875 18.265625 18.828125 12.890625 
Q 22.859375 7.515625 30.078125 7.515625 
Q 37.359375 7.515625 41.375 12.890625 
Q 45.40625 18.265625 45.40625 27.984375 
z
M 54.390625 6.78125 
Q 54.390625 -7.171875 48.1875 -13.984375 
Q 42 -20.796875 29.203125 -20.796875 
Q 24.46875 -20.796875 20.265625 -20.09375 
Q 16.0625 -19.390625 12.109375 -17.921875 
L 12.109375 -9.1875 
Q 16.0625 -11.328125 19.921875 -12.34375 
Q 23.78125 -13.375 27.78125 -13.375 
Q 36.625 -13.375 41.015625 -8.765625 
Q 45.40625 -4.15625 45.40625 5.171875 
L 45.40625 9.625 
Q 42.625 4.78125 38.28125 2.390625 
Q 33.9375 0 27.875 0 
Q 17.828125 0 11.671875 7.65625 
Q 5.515625 15.328125 5.515625 27.984375 
Q 5.515625 40.671875 11.671875 48.328125 
Q 17.828125 56 27.875 56 
Q 33.9375 56 38.28125 53.609375 
Q 42.625 51.21875 45.40625 46.390625 
L 45.40625 54.6875 
L 54.390625 54.6875 
z
" id="DejaVuSans-103"/>
      <path d="M 18.3125 70.21875 
L 18.3125 54.6875 
L 36.8125 54.6875 
L 36.8125 47.703125 
L 18.3125 47.703125 
L 18.3125 18.015625 
Q 18.3125 11.328125 20.140625 9.421875 
Q 21.96875 7.515625 27.59375 7.515625 
L 36.8125 7.515625 
L 36.8125 0 
L 27.59375 0 
Q 17.1875 0 13.234375 3.875 
Q 9.28125 7.765625 9.28125 18.015625 
L 9.28125 47.703125 
L 2.6875 47.703125 
L 2.6875 54.6875 
L 9.28125 54.6875 
L 9.28125 70.21875 
z
" id="DejaVuSans-116"/>
      <path d="M 44.28125 53.078125 
L 44.28125 44.578125 
Q 40.484375 46.53125 36.375 47.5 
Q 32.28125 48.484375 27.875 48.484375 
Q 21.1875 48.484375 17.84375 46.4375 
Q 14.5 44.390625 14.5 40.28125 
Q 14.5 37.15625 16.890625 35.375 
Q 19.28125 33.59375 26.515625 31.984375 
L 29.59375 31.296875 
Q 39.15625 29.25 43.1875 25.515625 
Q 47.21875 21.78125 47.21875 15.09375 
Q 47.21875 7.46875 41.1875 3.015625 
Q 35.15625 -1.421875 24.609375 -1.421875 
Q 20.21875 -1.421875 15.453125 -0.5625 
Q 10.6875 0.296875 5.421875 2 
L 5.421875 11.28125 
Q 10.40625 8.6875 15.234375 7.390625 
Q 20.0625 6.109375 24.8125 6.109375 
Q 31.15625 6.109375 34.5625 8.28125 
Q 37.984375 10.453125 37.984375 14.40625 
Q 37.984375 18.0625 35.515625 20.015625 
Q 33.0625 21.96875 24.703125 23.78125 
L 21.578125 24.515625 
Q 13.234375 26.265625 9.515625 29.90625 
Q 5.8125 33.546875 5.8125 39.890625 
Q 5.8125 47.609375 11.28125 51.796875 
Q 16.75 56 26.8125 56 
Q 31.78125 56 36.171875 55.265625 
Q 40.578125 54.546875 44.28125 53.078125 
z
" id="DejaVuSans-115"/>
      <path d="M 37.109375 75.984375 
L 37.109375 68.5 
L 28.515625 68.5 
Q 23.6875 68.5 21.796875 66.546875 
Q 19.921875 64.59375 19.921875 59.515625 
L 19.921875 54.6875 
L 34.71875 54.6875 
L 34.71875 47.703125 
L 19.921875 47.703125 
L 19.921875 0 
L 10.890625 0 
L 10.890625 47.703125 
L 2.296875 47.703125 
L 2.296875 54.6875 
L 10.890625 54.6875 
L 10.890625 58.5 
Q 10.890625 67.625 15.140625 71.796875 
Q 19.390625 75.984375 28.609375 75.984375 
z
" id="DejaVuSans-102"/>
      <path d="M 8.015625 75.875 
L 15.828125 75.875 
Q 23.140625 64.359375 26.78125 53.3125 
Q 30.421875 42.28125 30.421875 31.390625 
Q 30.421875 20.453125 26.78125 9.375 
Q 23.140625 -1.703125 15.828125 -13.1875 
L 8.015625 -13.1875 
Q 14.5 -2 17.703125 9.0625 
Q 20.90625 20.125 20.90625 31.390625 
Q 20.90625 42.671875 17.703125 53.65625 
Q 14.5 64.65625 8.015625 75.875 
z
" id="DejaVuSans-41"/>
     </defs>
     <g transform="translate(165.845455 475.01375)scale(0.15 -0.15)">
      <use transform="translate(0 0.015625)" xlink:href="#DejaVuSans-49"/>
      <use transform="translate(63.623047 0.015625)" xlink:href="#DejaVuSans-47"/>
      <use transform="translate(97.314453 0.015625)" xlink:href="#DejaVuSans-Oblique-74"/>
      <use transform="translate(126.806641 0.015625)" xlink:href="#DejaVuSans-40"/>
      <use transform="translate(165.820312 0.015625)" xlink:href="#DejaVuSans-98"/>
      <use transform="translate(229.296875 0.015625)" xlink:href="#DejaVuSans-97"/>
      <use transform="translate(290.576172 0.015625)" xlink:href="#DejaVuSans-114"/>
      <use transform="translate(331.689453 0.015625)" xlink:href="#DejaVuSans-101"/>
      <use transform="translate(393.212891 0.015625)" xlink:href="#DejaVuSans-32"/>
      <use transform="translate(425 0.015625)" xlink:href="#DejaVuSans-75"/>
      <use transform="translate(490.576172 0.015625)" xlink:href="#DejaVuSans-111"/>
      <use transform="translate(551.757812 0.015625)" xlink:href="#DejaVuSans-110"/>
      <use transform="translate(615.136719 0.015625)" xlink:href="#DejaVuSans-100"/>
      <use transform="translate(678.613281 0.015625)" xlink:href="#DejaVuSans-111"/>
      <use transform="translate(739.794922 0.015625)" xlink:href="#DejaVuSans-32"/>
      <use transform="translate(771.582031 0.015625)" xlink:href="#DejaVuSans-99"/>
      <use transform="translate(826.5625 0.015625)" xlink:href="#DejaVuSans-111"/>
      <use transform="translate(887.744141 0.015625)" xlink:href="#DejaVuSans-117"/>
      <use transform="translate(951.123047 0.015625)" xlink:href="#DejaVuSans-112"/>
      <use transform="translate(1014.599609 0.015625)" xlink:href="#DejaVuSans-108"/>
      <use transform="translate(1042.382812 0.015625)" xlink:href="#DejaVuSans-105"/>
      <use transform="translate(1070.166016 0.015625)" xlink:href="#DejaVuSans-110"/>
      <use transform="translate(1133.544922 0.015625)" xlink:href="#DejaVuSans-103"/>
      <use transform="translate(1197.021484 0.015625)" xlink:href="#DejaVuSans-32"/>
      <use transform="translate(1228.808594 0.015625)" xlink:href="#DejaVuSans-105"/>
      <use transform="translate(1256.591797 0.015625)" xlink:href="#DejaVuSans-110"/>
      <use transform="translate(1319.970703 0.015625)" xlink:href="#DejaVuSans-32"/>
      <use transform="translate(1351.757812 0.015625)" xlink:href="#DejaVuSans-117"/>
      <use transform="translate(1415.136719 0.015625)" xlink:href="#DejaVuSans-110"/>
      <use transform="translate(1478.515625 0.015625)" xlink:href="#DejaVuSans-105"/>
      <use transform="translate(1506.298828 0.015625)" xlink:href="#DejaVuSans-116"/>
      <use transform="translate(1545.507812 0.015625)" xlink:href="#DejaVuSans-115"/>
      <use transform="translate(1597.607422 0.015625)" xlink:href="#DejaVuSans-32"/>
      <use transform="translate(1629.394531 0.015625)" xlink:href="#DejaVuSans-111"/>
      <use transform="translate(1690.576172 0.015625)" xlink:href="#DejaVuSans-102"/>
      <use transform="translate(1725.78125 0.015625)" xlink:href="#DejaVuSans-32"/>
      <use transform="translate(1757.568359 0.015625)" xlink:href="#DejaVuSans-116"/>
      <use transform="translate(1796.777344 0.015625)" xlink:href="#DejaVuSans-41"/>
     </g>
    </g>
   </g>
   <g id="matplotlib.axis_2">
    <g id="ytick_1">
     <g id="line2d_6">
      <defs>
       <path d="M 0 0 
L -2 0 
" id="m422659abd2" style="stroke:#000000;stroke-width:0.6;"/>
      </defs>
      <g>
       <use style="stroke:#000000;stroke-width:0.6;" x="126" xlink:href="#m422659abd2" y="420.360526"/>
      </g>
     </g>
     <g id="text_7">
      <!-- $\mathdefault{3.625\times10^{0}}$ -->
      <defs>
       <path d="M 40.578125 39.3125 
Q 47.65625 37.796875 51.625 33 
Q 55.609375 28.21875 55.609375 21.1875 
Q 55.609375 10.40625 48.1875 4.484375 
Q 40.765625 -1.421875 27.09375 -1.421875 
Q 22.515625 -1.421875 17.65625 -0.515625 
Q 12.796875 0.390625 7.625 2.203125 
L 7.625 11.71875 
Q 11.71875 9.328125 16.59375 8.109375 
Q 21.484375 6.890625 26.8125 6.890625 
Q 36.078125 6.890625 40.9375 10.546875 
Q 45.796875 14.203125 45.796875 21.1875 
Q 45.796875 27.640625 41.28125 31.265625 
Q 36.765625 34.90625 28.71875 34.90625 
L 20.21875 34.90625 
L 20.21875 43.015625 
L 29.109375 43.015625 
Q 36.375 43.015625 40.234375 45.921875 
Q 44.09375 48.828125 44.09375 54.296875 
Q 44.09375 59.90625 40.109375 62.90625 
Q 36.140625 65.921875 28.71875 65.921875 
Q 24.65625 65.921875 20.015625 65.03125 
Q 15.375 64.15625 9.8125 62.3125 
L 9.8125 71.09375 
Q 15.4375 72.65625 20.34375 73.4375 
Q 25.25 74.21875 29.59375 74.21875 
Q 40.828125 74.21875 47.359375 69.109375 
Q 53.90625 64.015625 53.90625 55.328125 
Q 53.90625 49.265625 50.4375 45.09375 
Q 46.96875 40.921875 40.578125 39.3125 
z
" id="DejaVuSans-51"/>
       <path d="M 10.796875 72.90625 
L 49.515625 72.90625 
L 49.515625 64.59375 
L 19.828125 64.59375 
L 19.828125 46.734375 
Q 21.96875 47.46875 24.109375 47.828125 
Q 26.265625 48.1875 28.421875 48.1875 
Q 40.625 48.1875 47.75 41.5 
Q 54.890625 34.8125 54.890625 23.390625 
Q 54.890625 11.625 47.5625 5.09375 
Q 40.234375 -1.421875 26.90625 -1.421875 
Q 22.3125 -1.421875 17.546875 -0.640625 
Q 12.796875 0.140625 7.71875 1.703125 
L 7.71875 11.625 
Q 12.109375 9.234375 16.796875 8.0625 
Q 21.484375 6.890625 26.703125 6.890625 
Q 35.15625 6.890625 40.078125 11.328125 
Q 45.015625 15.765625 45.015625 23.390625 
Q 45.015625 31 40.078125 35.4375 
Q 35.15625 39.890625 26.703125 39.890625 
Q 22.75 39.890625 18.8125 39.015625 
Q 14.890625 38.140625 10.796875 36.28125 
z
" id="DejaVuSans-53"/>
       <path d="M 70.125 53.71875 
L 47.796875 31.296875 
L 70.125 8.984375 
L 64.3125 3.078125 
L 41.890625 25.484375 
L 19.484375 3.078125 
L 13.71875 8.984375 
L 35.984375 31.296875 
L 13.71875 53.71875 
L 19.484375 59.625 
L 41.890625 37.203125 
L 64.3125 59.625 
z
" id="DejaVuSans-215"/>
      </defs>
      <g transform="translate(62.1 424.159744)scale(0.1 -0.1)">
       <use transform="translate(0 0.765625)" xlink:href="#DejaVuSans-51"/>
       <use transform="translate(63.623047 0.765625)" xlink:href="#DejaVuSans-46"/>
       <use transform="translate(95.410156 0.765625)" xlink:href="#DejaVuSans-54"/>
       <use transform="translate(159.033203 0.765625)" xlink:href="#DejaVuSans-50"/>
       <use transform="translate(222.65625 0.765625)" xlink:href="#DejaVuSans-53"/>
       <use transform="translate(305.761719 0.765625)" xlink:href="#DejaVuSans-215"/>
       <use transform="translate(409.033203 0.765625)" xlink:href="#DejaVuSans-49"/>
       <use transform="translate(472.65625 0.765625)" xlink:href="#DejaVuSans-48"/>
       <use transform="translate(537.236328 39.046875)scale(0.7)" xlink:href="#DejaVuSans-48"/>
      </g>
     </g>
    </g>
    <g id="ytick_2">
     <g id="line2d_7">
      <g>
       <use style="stroke:#000000;stroke-width:0.6;" x="126" xlink:href="#m422659abd2" y="371.34202"/>
      </g>
     </g>
     <g id="text_8">
      <!-- $\mathdefault{3.65\times10^{0}}$ -->
      <g transform="translate(68.5 375.141239)scale(0.1 -0.1)">
       <use transform="translate(0 0.765625)" xlink:href="#DejaVuSans-51"/>
       <use transform="translate(63.623047 0.765625)" xlink:href="#DejaVuSans-46"/>
       <use transform="translate(95.410156 0.765625)" xlink:href="#DejaVuSans-54"/>
       <use transform="translate(159.033203 0.765625)" xlink:href="#DejaVuSans-53"/>
       <use transform="translate(242.138672 0.765625)" xlink:href="#DejaVuSans-215"/>
       <use transform="translate(345.410156 0.765625)" xlink:href="#DejaVuSans-49"/>
       <use transform="translate(409.033203 0.765625)" xlink:href="#DejaVuSans-48"/>
       <use transform="translate(473.613281 39.046875)scale(0.7)" xlink:href="#DejaVuSans-48"/>
      </g>
     </g>
    </g>
    <g id="ytick_3">
     <g id="line2d_8">
      <g>
       <use style="stroke:#000000;stroke-width:0.6;" x="126" xlink:href="#m422659abd2" y="322.658115"/>
      </g>
     </g>
     <g id="text_9">
      <!-- $\mathdefault{3.675\times10^{0}}$ -->
      <defs>
       <path d="M 8.203125 72.90625 
L 55.078125 72.90625 
L 55.078125 68.703125 
L 28.609375 0 
L 18.3125 0 
L 43.21875 64.59375 
L 8.203125 64.59375 
z
" id="DejaVuSans-55"/>
      </defs>
      <g transform="translate(62.1 326.457334)scale(0.1 -0.1)">
       <use transform="translate(0 0.765625)" xlink:href="#DejaVuSans-51"/>
       <use transform="translate(63.623047 0.765625)" xlink:href="#DejaVuSans-46"/>
       <use transform="translate(95.410156 0.765625)" xlink:href="#DejaVuSans-54"/>
       <use transform="translate(159.033203 0.765625)" xlink:href="#DejaVuSans-55"/>
       <use transform="translate(222.65625 0.765625)" xlink:href="#DejaVuSans-53"/>
       <use transform="translate(305.761719 0.765625)" xlink:href="#DejaVuSans-215"/>
       <use transform="translate(409.033203 0.765625)" xlink:href="#DejaVuSans-49"/>
       <use transform="translate(472.65625 0.765625)" xlink:href="#DejaVuSans-48"/>
       <use transform="translate(537.236328 39.046875)scale(0.7)" xlink:href="#DejaVuSans-48"/>
      </g>
     </g>
    </g>
    <g id="ytick_4">
     <g id="line2d_9">
      <g>
       <use style="stroke:#000000;stroke-width:0.6;" x="126" xlink:href="#m422659abd2" y="274.304272"/>
      </g>
     </g>
     <g id="text_10">
      <!-- $\mathdefault{3.7\times10^{0}}$ -->
      <g transform="translate(74.8 278.103491)scale(0.1 -0.1)">
       <use transform="translate(0 0.765625)" xlink:href="#DejaVuSans-51"/>
       <use transform="translate(63.623047 0.765625)" xlink:href="#DejaVuSans-46"/>
       <use transform="translate(95.300781 0.765625)" xlink:href="#DejaVuSans-55"/>
       <use transform="translate(178.40625 0.765625)" xlink:href="#DejaVuSans-215"/>
       <use transform="translate(281.677734 0.765625)" xlink:href="#DejaVuSans-49"/>
       <use transform="translate(345.300781 0.765625)" xlink:href="#DejaVuSans-48"/>
       <use transform="translate(409.880859 39.046875)scale(0.7)" xlink:href="#DejaVuSans-48"/>
      </g>
     </g>
    </g>
    <g id="ytick_5">
     <g id="line2d_10">
      <g>
       <use style="stroke:#000000;stroke-width:0.6;" x="126" xlink:href="#m422659abd2" y="226.276047"/>
      </g>
     </g>
     <g id="text_11">
      <!-- $\mathdefault{3.725\times10^{0}}$ -->
      <g transform="translate(62.1 230.075266)scale(0.1 -0.1)">
       <use transform="translate(0 0.765625)" xlink:href="#DejaVuSans-51"/>
       <use transform="translate(63.623047 0.765625)" xlink:href="#DejaVuSans-46"/>
       <use transform="translate(95.300781 0.765625)" xlink:href="#DejaVuSans-55"/>
       <use transform="translate(158.923828 0.765625)" xlink:href="#DejaVuSans-50"/>
       <use transform="translate(222.546875 0.765625)" xlink:href="#DejaVuSans-53"/>
       <use transform="translate(305.652344 0.765625)" xlink:href="#DejaVuSans-215"/>
       <use transform="translate(408.923828 0.765625)" xlink:href="#DejaVuSans-49"/>
       <use transform="translate(472.546875 0.765625)" xlink:href="#DejaVuSans-48"/>
       <use transform="translate(537.126953 39.046875)scale(0.7)" xlink:href="#DejaVuSans-48"/>
      </g>
     </g>
    </g>
    <g id="ytick_6">
     <g id="line2d_11">
      <g>
       <use style="stroke:#000000;stroke-width:0.6;" x="126" xlink:href="#m422659abd2" y="178.569084"/>
      </g>
     </g>
     <g id="text_12">
      <!-- $\mathdefault{3.75\times10^{0}}$ -->
      <g transform="translate(68.5 182.368303)scale(0.1 -0.1)">
       <use transform="translate(0 0.765625)" xlink:href="#DejaVuSans-51"/>
       <use transform="translate(63.623047 0.765625)" xlink:href="#DejaVuSans-46"/>
       <use transform="translate(95.300781 0.765625)" xlink:href="#DejaVuSans-55"/>
       <use transform="translate(158.923828 0.765625)" xlink:href="#DejaVuSans-53"/>
       <use transform="translate(242.029297 0.765625)" xlink:href="#DejaVuSans-215"/>
       <use transform="translate(345.300781 0.765625)" xlink:href="#DejaVuSans-49"/>
       <use transform="translate(408.923828 0.765625)" xlink:href="#DejaVuSans-48"/>
       <use transform="translate(473.503906 39.046875)scale(0.7)" xlink:href="#DejaVuSans-48"/>
      </g>
     </g>
    </g>
    <g id="ytick_7">
     <g id="line2d_12">
      <g>
       <use style="stroke:#000000;stroke-width:0.6;" x="126" xlink:href="#m422659abd2" y="131.179113"/>
      </g>
     </g>
     <g id="text_13">
      <!-- $\mathdefault{3.775\times10^{0}}$ -->
      <g transform="translate(62.1 134.978331)scale(0.1 -0.1)">
       <use transform="translate(0 0.765625)" xlink:href="#DejaVuSans-51"/>
       <use transform="translate(63.623047 0.765625)" xlink:href="#DejaVuSans-46"/>
       <use transform="translate(95.300781 0.765625)" xlink:href="#DejaVuSans-55"/>
       <use transform="translate(158.908203 0.765625)" xlink:href="#DejaVuSans-55"/>
       <use transform="translate(222.53125 0.765625)" xlink:href="#DejaVuSans-53"/>
       <use transform="translate(305.636719 0.765625)" xlink:href="#DejaVuSans-215"/>
       <use transform="translate(408.908203 0.765625)" xlink:href="#DejaVuSans-49"/>
       <use transform="translate(472.53125 0.765625)" xlink:href="#DejaVuSans-48"/>
       <use transform="translate(537.111328 39.046875)scale(0.7)" xlink:href="#DejaVuSans-48"/>
      </g>
     </g>
    </g>
    <g id="ytick_8">
     <g id="line2d_13">
      <g>
       <use style="stroke:#000000;stroke-width:0.6;" x="126" xlink:href="#m422659abd2" y="84.101948"/>
      </g>
     </g>
     <g id="text_14">
      <!-- $\mathdefault{3.8\times10^{0}}$ -->
      <g transform="translate(74.8 87.901167)scale(0.1 -0.1)">
       <use transform="translate(0 0.765625)" xlink:href="#DejaVuSans-51"/>
       <use transform="translate(63.623047 0.765625)" xlink:href="#DejaVuSans-46"/>
       <use transform="translate(95.378906 0.765625)" xlink:href="#DejaVuSans-56"/>
       <use transform="translate(178.484375 0.765625)" xlink:href="#DejaVuSans-215"/>
       <use transform="translate(281.755859 0.765625)" xlink:href="#DejaVuSans-49"/>
       <use transform="translate(345.378906 0.765625)" xlink:href="#DejaVuSans-48"/>
       <use transform="translate(409.958984 39.046875)scale(0.7)" xlink:href="#DejaVuSans-48"/>
      </g>
     </g>
    </g>
    <g id="text_15">
     <!-- $\xi_{K}$(log scale) -->
     <defs>
      <path d="M 31.5 6.203125 
Q 37.9375 6.15625 41.0625 2.484375 
Q 44.4375 -1.375 43.3125 -7.234375 
Q 42.1875 -12.84375 37.84375 -16.75 
Q 33.109375 -21 25.140625 -21 
Q 25.875 -17.328125 26.5625 -13.625 
Q 29.890625 -13.875 32.375 -11.71875 
Q 34.28125 -10.015625 34.625 -8.203125 
Q 35.109375 -5.609375 33.984375 -3.46875 
Q 32.8125 -1.421875 30.03125 -1.421875 
Q -0.390625 -1.421875 3.765625 19.921875 
Q 6.59375 34.578125 23.6875 38.875 
Q 10.359375 40.625 12.84375 53.328125 
Q 14.703125 62.9375 26.21875 66.9375 
L 16.0625 66.9375 
L 17.828125 75.984375 
L 56.34375 75.984375 
L 54.59375 66.9375 
Q 23.875 66.9375 21.09375 52.734375 
Q 19.28125 43.40625 45.015625 42.96875 
L 43.40625 34.671875 
Q 15.765625 35.75 12.796875 19.921875 
Q 10.296875 6.6875 31.5 6.203125 
z
" id="DejaVuSans-Oblique-958"/>
      <path d="M 16.890625 72.90625 
L 26.8125 72.90625 
L 20.796875 42.1875 
L 59.078125 72.90625 
L 72.21875 72.90625 
L 28.90625 38.09375 
L 60.59375 0 
L 48.578125 0 
L 19.484375 35.5 
L 12.59375 0 
L 2.6875 0 
z
" id="DejaVuSans-Oblique-75"/>
     </defs>
     <g transform="translate(54.95 297.615)rotate(-90)scale(0.15 -0.15)">
      <use transform="translate(0 0.015625)" xlink:href="#DejaVuSans-Oblique-958"/>
      <use transform="translate(55.761719 -16.390625)scale(0.7)" xlink:href="#DejaVuSans-Oblique-75"/>
      <use transform="translate(104.399414 0.015625)" xlink:href="#DejaVuSans-40"/>
      <use transform="translate(143.413086 0.015625)" xlink:href="#DejaVuSans-108"/>
      <use transform="translate(171.196289 0.015625)" xlink:href="#DejaVuSans-111"/>
      <use transform="translate(232.37793 0.015625)" xlink:href="#DejaVuSans-103"/>
      <use transform="translate(295.854492 0.015625)" xlink:href="#DejaVuSans-32"/>
      <use transform="translate(327.641602 0.015625)" xlink:href="#DejaVuSans-115"/>
      <use transform="translate(379.741211 0.015625)" xlink:href="#DejaVuSans-99"/>
      <use transform="translate(434.72168 0.015625)" xlink:href="#DejaVuSans-97"/>
      <use transform="translate(496.000977 0.015625)" xlink:href="#DejaVuSans-108"/>
      <use transform="translate(523.78418 0.015625)" xlink:href="#DejaVuSans-101"/>
      <use transform="translate(585.307617 0.015625)" xlink:href="#DejaVuSans-41"/>
     </g>
    </g>
   </g>
   <g id="line2d_14">
    <path clip-path="url(#p186543b634)" d="M 464.950413 77.776364 
L 435.060606 109.159456 
L 409.769231 135.549784 
L 388.090909 158.373852 
L 369.30303 178.344911 
L 352.863636 195.462962 
L 338.358289 210.441256 
L 325.464646 224.706298 
L 313.92823 236.831584 
L 303.545455 247.530366 
L 294.151515 258.229147 
L 285.61157 266.788172 
L 277.814229 275.347198 
L 270.666667 283.192971 
L 264.090909 290.325492 
L 258.020979 296.744761 
L 252.400673 302.450778 
L 247.181818 308.156795 
L 242.322884 313.862812 
L 237.787879 318.855576 
L 233.545455 323.135089 
L 229.568182 327.414602 
L 225.831956 331.694114 
L 222.315508 335.260375 
L 219 338.826635 
L 215.868687 342.392896 
L 212.906634 345.959157 
L 210.100478 348.812165 
L 207.438228 351.665173 
L 204.909091 354.518182 
L 202.503326 356.657938 
L 200.212121 359.510947 
L 198.027484 361.650703 
L 195.942149 363.790459 
L 193.949495 366.643468 
L 192.043478 368.069972 
L 190.218569 370.209728 
L 188.469697 372.349485 
L 186.792208 374.489241 
L 185.181818 375.915745 
L 183.634581 377.342249 
L 182.146853 379.482006 
L 180.715266 380.90851 
L 179.3367 382.335014 
L 178.008264 383.761518 
L 176.727273 385.188022 
L 175.491228 386.614527 
L 174.297806 388.041031 
L 173.144838 389.467535 
L 172.030303 390.180787 
L 170.95231 391.607291 
L 169.909091 393.033796 
L 168.89899 393.747048 
L 167.920455 395.173552 
L 166.972028 395.886804 
L 166.052342 397.313308 
L 165.160109 398.02656 
L 164.294118 398.739813 
L 163.453228 400.166317 
L 162.636364 400.879569 
L 161.84251 401.592821 
L 161.070707 402.306073 
L 160.32005 403.019325 
L 159.589681 404.445829 
L 158.878788 405.159082 
L 158.186603 405.872334 
L 157.512397 406.585586 
L 156.855478 407.298838 
L 156.21519 408.01209 
L 155.590909 408.725342 
L 154.982043 409.438594 
L 154.388027 410.151846 
L 153.808324 410.865098 
L 153.242424 410.865098 
L 152.68984 411.578351 
L 152.150106 412.291603 
L 151.62278 413.004855 
L 151.107438 413.718107 
L 150.603677 414.431359 
L 150.111111 414.431359 
L 149.629371 415.144611 
L 149.158103 415.857863 
L 148.69697 415.857863 
L 148.245648 416.571115 
L 147.803828 417.284367 
L 147.371212 417.997619 
L 146.947516 417.997619 
L 146.532468 418.710872 
L 146.125803 418.710872 
L 145.727273 419.424124 
L 145.336634 420.137376 
L 144.953654 420.137376 
L 144.578111 420.850628 
L 144.20979 420.850628 
L 143.848485 421.56388 
L 143.493997 422.277132 
L 143.146134 422.277132 
L 142.804714 422.990384 
L 142.469558 422.990384 
L 142.140496 423.703636 
" style="fill:none;stroke:#1f77b4;stroke-linecap:square;stroke-width:1.5;"/>
   </g>
   <g id="patch_3">
    <path d="M 126 441 
L 126 60.48 
" style="fill:none;stroke:#000000;stroke-linecap:square;stroke-linejoin:miter;stroke-width:0.8;"/>
   </g>
   <g id="patch_4">
    <path d="M 481.090909 441 
L 481.090909 60.48 
" style="fill:none;stroke:#000000;stroke-linecap:square;stroke-linejoin:miter;stroke-width:0.8;"/>
   </g>
   <g id="patch_5">
    <path d="M 126 441 
L 481.090909 441 
" style="fill:none;stroke:#000000;stroke-linecap:square;stroke-linejoin:miter;stroke-width:0.8;"/>
   </g>
   <g id="patch_6">
    <path d="M 126 60.48 
L 481.090909 60.48 
" style="fill:none;stroke:#000000;stroke-linecap:square;stroke-linejoin:miter;stroke-width:0.8;"/>
   </g>
  </g>
  <g id="axes_2">
   <g id="patch_7">
    <path d="M 552.109091 441 
L 907.2 441 
L 907.2 60.48 
L 552.109091 60.48 
z
" style="fill:#ffffff;"/>
   </g>
   <g id="matplotlib.axis_3">
    <g id="xtick_6">
     <g id="line2d_15">
      <g>
       <use style="stroke:#000000;stroke-width:0.8;" x="604.117355" xlink:href="#meb6c8e54e4" y="441"/>
      </g>
     </g>
     <g id="text_16">
      <!-- $\mathdefault{0.2}$ -->
      <g transform="translate(594.577355 457.118125)scale(0.12 -0.12)">
       <use transform="translate(0 0.78125)" xlink:href="#DejaVuSans-48"/>
       <use transform="translate(63.623047 0.78125)" xlink:href="#DejaVuSans-46"/>
       <use transform="translate(95.332031 0.78125)" xlink:href="#DejaVuSans-50"/>
      </g>
     </g>
    </g>
    <g id="xtick_7">
     <g id="line2d_16">
      <g>
       <use style="stroke:#000000;stroke-width:0.8;" x="675.852893" xlink:href="#meb6c8e54e4" y="441"/>
      </g>
     </g>
     <g id="text_17">
      <!-- $\mathdefault{0.4}$ -->
      <g transform="translate(666.252893 457.118125)scale(0.12 -0.12)">
       <use transform="translate(0 0.78125)" xlink:href="#DejaVuSans-48"/>
       <use transform="translate(63.623047 0.78125)" xlink:href="#DejaVuSans-46"/>
       <use transform="translate(95.410156 0.78125)" xlink:href="#DejaVuSans-52"/>
      </g>
     </g>
    </g>
    <g id="xtick_8">
     <g id="line2d_17">
      <g>
       <use style="stroke:#000000;stroke-width:0.8;" x="747.58843" xlink:href="#meb6c8e54e4" y="441"/>
      </g>
     </g>
     <g id="text_18">
      <!-- $\mathdefault{0.6}$ -->
      <g transform="translate(737.98843 457.118125)scale(0.12 -0.12)">
       <use transform="translate(0 0.78125)" xlink:href="#DejaVuSans-48"/>
       <use transform="translate(63.623047 0.78125)" xlink:href="#DejaVuSans-46"/>
       <use transform="translate(95.410156 0.78125)" xlink:href="#DejaVuSans-54"/>
      </g>
     </g>
    </g>
    <g id="xtick_9">
     <g id="line2d_18">
      <g>
       <use style="stroke:#000000;stroke-width:0.8;" x="819.323967" xlink:href="#meb6c8e54e4" y="441"/>
      </g>
     </g>
     <g id="text_19">
      <!-- $\mathdefault{0.8}$ -->
      <g transform="translate(809.723967 457.118125)scale(0.12 -0.12)">
       <use transform="translate(0 0.78125)" xlink:href="#DejaVuSans-48"/>
       <use transform="translate(63.623047 0.78125)" xlink:href="#DejaVuSans-46"/>
       <use transform="translate(95.378906 0.78125)" xlink:href="#DejaVuSans-56"/>
      </g>
     </g>
    </g>
    <g id="xtick_10">
     <g id="line2d_19">
      <g>
       <use style="stroke:#000000;stroke-width:0.8;" x="891.059504" xlink:href="#meb6c8e54e4" y="441"/>
      </g>
     </g>
     <g id="text_20">
      <!-- $\mathdefault{1.0}$ -->
      <g transform="translate(881.459504 457.118125)scale(0.12 -0.12)">
       <use transform="translate(0 0.78125)" xlink:href="#DejaVuSans-49"/>
       <use transform="translate(63.623047 0.78125)" xlink:href="#DejaVuSans-46"/>
       <use transform="translate(95.410156 0.78125)" xlink:href="#DejaVuSans-48"/>
      </g>
     </g>
    </g>
    <g id="text_21">
     <!-- $J$(bare Kondo coupling in units of t) -->
     <g transform="translate(599.229545 475.01375)scale(0.15 -0.15)">
      <use transform="translate(0 0.015625)" xlink:href="#DejaVuSans-Oblique-74"/>
      <use transform="translate(29.492188 0.015625)" xlink:href="#DejaVuSans-40"/>
      <use transform="translate(68.505859 0.015625)" xlink:href="#DejaVuSans-98"/>
      <use transform="translate(131.982422 0.015625)" xlink:href="#DejaVuSans-97"/>
      <use transform="translate(193.261719 0.015625)" xlink:href="#DejaVuSans-114"/>
      <use transform="translate(234.375 0.015625)" xlink:href="#DejaVuSans-101"/>
      <use transform="translate(295.898438 0.015625)" xlink:href="#DejaVuSans-32"/>
      <use transform="translate(327.685547 0.015625)" xlink:href="#DejaVuSans-75"/>
      <use transform="translate(393.261719 0.015625)" xlink:href="#DejaVuSans-111"/>
      <use transform="translate(454.443359 0.015625)" xlink:href="#DejaVuSans-110"/>
      <use transform="translate(517.822266 0.015625)" xlink:href="#DejaVuSans-100"/>
      <use transform="translate(581.298828 0.015625)" xlink:href="#DejaVuSans-111"/>
      <use transform="translate(642.480469 0.015625)" xlink:href="#DejaVuSans-32"/>
      <use transform="translate(674.267578 0.015625)" xlink:href="#DejaVuSans-99"/>
      <use transform="translate(729.248047 0.015625)" xlink:href="#DejaVuSans-111"/>
      <use transform="translate(790.429688 0.015625)" xlink:href="#DejaVuSans-117"/>
      <use transform="translate(853.808594 0.015625)" xlink:href="#DejaVuSans-112"/>
      <use transform="translate(917.285156 0.015625)" xlink:href="#DejaVuSans-108"/>
      <use transform="translate(945.068359 0.015625)" xlink:href="#DejaVuSans-105"/>
      <use transform="translate(972.851562 0.015625)" xlink:href="#DejaVuSans-110"/>
      <use transform="translate(1036.230469 0.015625)" xlink:href="#DejaVuSans-103"/>
      <use transform="translate(1099.707031 0.015625)" xlink:href="#DejaVuSans-32"/>
      <use transform="translate(1131.494141 0.015625)" xlink:href="#DejaVuSans-105"/>
      <use transform="translate(1159.277344 0.015625)" xlink:href="#DejaVuSans-110"/>
      <use transform="translate(1222.65625 0.015625)" xlink:href="#DejaVuSans-32"/>
      <use transform="translate(1254.443359 0.015625)" xlink:href="#DejaVuSans-117"/>
      <use transform="translate(1317.822266 0.015625)" xlink:href="#DejaVuSans-110"/>
      <use transform="translate(1381.201172 0.015625)" xlink:href="#DejaVuSans-105"/>
      <use transform="translate(1408.984375 0.015625)" xlink:href="#DejaVuSans-116"/>
      <use transform="translate(1448.193359 0.015625)" xlink:href="#DejaVuSans-115"/>
      <use transform="translate(1500.292969 0.015625)" xlink:href="#DejaVuSans-32"/>
      <use transform="translate(1532.080078 0.015625)" xlink:href="#DejaVuSans-111"/>
      <use transform="translate(1593.261719 0.015625)" xlink:href="#DejaVuSans-102"/>
      <use transform="translate(1628.466797 0.015625)" xlink:href="#DejaVuSans-32"/>
      <use transform="translate(1660.253906 0.015625)" xlink:href="#DejaVuSans-116"/>
      <use transform="translate(1699.462891 0.015625)" xlink:href="#DejaVuSans-41"/>
     </g>
    </g>
    <g id="text_22">
     <!-- $\times\mathdefault{10^{1}}\mathdefault{}$ -->
     <g transform="translate(881.2 470.212188)scale(0.1 -0.1)">
      <use transform="translate(0 0.684375)" xlink:href="#DejaVuSans-215"/>
      <use transform="translate(83.789062 0.684375)" xlink:href="#DejaVuSans-49"/>
      <use transform="translate(147.412109 0.684375)" xlink:href="#DejaVuSans-48"/>
      <use transform="translate(211.992188 38.965625)scale(0.7)" xlink:href="#DejaVuSans-49"/>
     </g>
    </g>
   </g>
   <g id="matplotlib.axis_4">
    <g id="ytick_9">
     <g id="line2d_20">
      <defs>
       <path d="M 0 0 
L -3.5 0 
" id="m1a3f4b307b" style="stroke:#000000;stroke-width:0.8;"/>
      </defs>
      <g>
       <use style="stroke:#000000;stroke-width:0.8;" x="552.109091" xlink:href="#m1a3f4b307b" y="418.955774"/>
      </g>
     </g>
     <g id="text_23">
      <!-- $\mathdefault{1.17}$ -->
      <g transform="translate(518.349091 423.514836)scale(0.12 -0.12)">
       <use transform="translate(0 0.09375)" xlink:href="#DejaVuSans-49"/>
       <use transform="translate(63.623047 0.09375)" xlink:href="#DejaVuSans-46"/>
       <use transform="translate(95.410156 0.09375)" xlink:href="#DejaVuSans-49"/>
       <use transform="translate(159.033203 0.09375)" xlink:href="#DejaVuSans-55"/>
      </g>
     </g>
    </g>
    <g id="ytick_10">
     <g id="line2d_21">
      <g>
       <use style="stroke:#000000;stroke-width:0.8;" x="552.109091" xlink:href="#m1a3f4b307b" y="369.865946"/>
      </g>
     </g>
     <g id="text_24">
      <!-- $\mathdefault{1.18}$ -->
      <g transform="translate(518.349091 374.425009)scale(0.12 -0.12)">
       <use transform="translate(0 0.78125)" xlink:href="#DejaVuSans-49"/>
       <use transform="translate(63.623047 0.78125)" xlink:href="#DejaVuSans-46"/>
       <use transform="translate(95.410156 0.78125)" xlink:href="#DejaVuSans-49"/>
       <use transform="translate(159.033203 0.78125)" xlink:href="#DejaVuSans-56"/>
      </g>
     </g>
    </g>
    <g id="ytick_11">
     <g id="line2d_22">
      <g>
       <use style="stroke:#000000;stroke-width:0.8;" x="552.109091" xlink:href="#m1a3f4b307b" y="320.776119"/>
      </g>
     </g>
     <g id="text_25">
      <!-- $\mathdefault{1.19}$ -->
      <defs>
       <path d="M 10.984375 1.515625 
L 10.984375 10.5 
Q 14.703125 8.734375 18.5 7.8125 
Q 22.3125 6.890625 25.984375 6.890625 
Q 35.75 6.890625 40.890625 13.453125 
Q 46.046875 20.015625 46.78125 33.40625 
Q 43.953125 29.203125 39.59375 26.953125 
Q 35.25 24.703125 29.984375 24.703125 
Q 19.046875 24.703125 12.671875 31.3125 
Q 6.296875 37.9375 6.296875 49.421875 
Q 6.296875 60.640625 12.9375 67.421875 
Q 19.578125 74.21875 30.609375 74.21875 
Q 43.265625 74.21875 49.921875 64.515625 
Q 56.59375 54.828125 56.59375 36.375 
Q 56.59375 19.140625 48.40625 8.859375 
Q 40.234375 -1.421875 26.421875 -1.421875 
Q 22.703125 -1.421875 18.890625 -0.6875 
Q 15.09375 0.046875 10.984375 1.515625 
z
M 30.609375 32.421875 
Q 37.25 32.421875 41.125 36.953125 
Q 45.015625 41.5 45.015625 49.421875 
Q 45.015625 57.28125 41.125 61.84375 
Q 37.25 66.40625 30.609375 66.40625 
Q 23.96875 66.40625 20.09375 61.84375 
Q 16.21875 57.28125 16.21875 49.421875 
Q 16.21875 41.5 20.09375 36.953125 
Q 23.96875 32.421875 30.609375 32.421875 
z
" id="DejaVuSans-57"/>
      </defs>
      <g transform="translate(518.349091 325.335181)scale(0.12 -0.12)">
       <use transform="translate(0 0.78125)" xlink:href="#DejaVuSans-49"/>
       <use transform="translate(63.623047 0.78125)" xlink:href="#DejaVuSans-46"/>
       <use transform="translate(95.410156 0.78125)" xlink:href="#DejaVuSans-49"/>
       <use transform="translate(159.033203 0.78125)" xlink:href="#DejaVuSans-57"/>
      </g>
     </g>
    </g>
    <g id="ytick_12">
     <g id="line2d_23">
      <g>
       <use style="stroke:#000000;stroke-width:0.8;" x="552.109091" xlink:href="#m1a3f4b307b" y="271.686291"/>
      </g>
     </g>
     <g id="text_26">
      <!-- $\mathdefault{1.20}$ -->
      <g transform="translate(518.349091 276.245354)scale(0.12 -0.12)">
       <use transform="translate(0 0.78125)" xlink:href="#DejaVuSans-49"/>
       <use transform="translate(63.623047 0.78125)" xlink:href="#DejaVuSans-46"/>
       <use transform="translate(95.332031 0.78125)" xlink:href="#DejaVuSans-50"/>
       <use transform="translate(158.955078 0.78125)" xlink:href="#DejaVuSans-48"/>
      </g>
     </g>
    </g>
    <g id="ytick_13">
     <g id="line2d_24">
      <g>
       <use style="stroke:#000000;stroke-width:0.8;" x="552.109091" xlink:href="#m1a3f4b307b" y="222.596464"/>
      </g>
     </g>
     <g id="text_27">
      <!-- $\mathdefault{1.21}$ -->
      <g transform="translate(518.349091 227.155526)scale(0.12 -0.12)">
       <use transform="translate(0 0.78125)" xlink:href="#DejaVuSans-49"/>
       <use transform="translate(63.623047 0.78125)" xlink:href="#DejaVuSans-46"/>
       <use transform="translate(95.332031 0.78125)" xlink:href="#DejaVuSans-50"/>
       <use transform="translate(158.955078 0.78125)" xlink:href="#DejaVuSans-49"/>
      </g>
     </g>
    </g>
    <g id="ytick_14">
     <g id="line2d_25">
      <g>
       <use style="stroke:#000000;stroke-width:0.8;" x="552.109091" xlink:href="#m1a3f4b307b" y="173.506636"/>
      </g>
     </g>
     <g id="text_28">
      <!-- $\mathdefault{1.22}$ -->
      <g transform="translate(518.349091 178.065699)scale(0.12 -0.12)">
       <use transform="translate(0 0.78125)" xlink:href="#DejaVuSans-49"/>
       <use transform="translate(63.623047 0.78125)" xlink:href="#DejaVuSans-46"/>
       <use transform="translate(95.332031 0.78125)" xlink:href="#DejaVuSans-50"/>
       <use transform="translate(158.955078 0.78125)" xlink:href="#DejaVuSans-50"/>
      </g>
     </g>
    </g>
    <g id="ytick_15">
     <g id="line2d_26">
      <g>
       <use style="stroke:#000000;stroke-width:0.8;" x="552.109091" xlink:href="#m1a3f4b307b" y="124.416809"/>
      </g>
     </g>
     <g id="text_29">
      <!-- $\mathdefault{1.23}$ -->
      <g transform="translate(518.349091 128.975871)scale(0.12 -0.12)">
       <use transform="translate(0 0.78125)" xlink:href="#DejaVuSans-49"/>
       <use transform="translate(63.623047 0.78125)" xlink:href="#DejaVuSans-46"/>
       <use transform="translate(95.332031 0.78125)" xlink:href="#DejaVuSans-50"/>
       <use transform="translate(158.955078 0.78125)" xlink:href="#DejaVuSans-51"/>
      </g>
     </g>
    </g>
    <g id="ytick_16">
     <g id="line2d_27">
      <g>
       <use style="stroke:#000000;stroke-width:0.8;" x="552.109091" xlink:href="#m1a3f4b307b" y="75.326981"/>
      </g>
     </g>
     <g id="text_30">
      <!-- $\mathdefault{1.24}$ -->
      <g transform="translate(518.349091 79.886044)scale(0.12 -0.12)">
       <use transform="translate(0 0.78125)" xlink:href="#DejaVuSans-49"/>
       <use transform="translate(63.623047 0.78125)" xlink:href="#DejaVuSans-46"/>
       <use transform="translate(95.332031 0.78125)" xlink:href="#DejaVuSans-50"/>
       <use transform="translate(158.955078 0.78125)" xlink:href="#DejaVuSans-52"/>
      </g>
     </g>
    </g>
    <g id="text_31">
     <!-- $J*$(ren. Kondo coupling in units of t) -->
     <defs>
      <path d="M 47.015625 60.890625 
L 29.5 51.421875 
L 47.015625 41.890625 
L 44.1875 37.109375 
L 27.78125 47.015625 
L 27.78125 28.609375 
L 22.21875 28.609375 
L 22.21875 47.015625 
L 5.8125 37.109375 
L 2.984375 41.890625 
L 20.515625 51.421875 
L 2.984375 60.890625 
L 5.8125 65.71875 
L 22.21875 55.8125 
L 22.21875 74.21875 
L 27.78125 74.21875 
L 27.78125 55.8125 
L 44.1875 65.71875 
z
" id="DejaVuSans-42"/>
     </defs>
     <g transform="translate(511.199091 385.59)rotate(-90)scale(0.15 -0.15)">
      <use transform="translate(0 0.015625)" xlink:href="#DejaVuSans-Oblique-74"/>
      <use transform="translate(48.974609 0.015625)" xlink:href="#DejaVuSans-42"/>
      <use transform="translate(118.457031 0.015625)" xlink:href="#DejaVuSans-40"/>
      <use transform="translate(157.470703 0.015625)" xlink:href="#DejaVuSans-114"/>
      <use transform="translate(198.583984 0.015625)" xlink:href="#DejaVuSans-101"/>
      <use transform="translate(260.107422 0.015625)" xlink:href="#DejaVuSans-110"/>
      <use transform="translate(323.486328 0.015625)" xlink:href="#DejaVuSans-46"/>
      <use transform="translate(355.273438 0.015625)" xlink:href="#DejaVuSans-32"/>
      <use transform="translate(387.060547 0.015625)" xlink:href="#DejaVuSans-75"/>
      <use transform="translate(452.636719 0.015625)" xlink:href="#DejaVuSans-111"/>
      <use transform="translate(513.818359 0.015625)" xlink:href="#DejaVuSans-110"/>
      <use transform="translate(577.197266 0.015625)" xlink:href="#DejaVuSans-100"/>
      <use transform="translate(640.673828 0.015625)" xlink:href="#DejaVuSans-111"/>
      <use transform="translate(701.855469 0.015625)" xlink:href="#DejaVuSans-32"/>
      <use transform="translate(733.642578 0.015625)" xlink:href="#DejaVuSans-99"/>
      <use transform="translate(788.623047 0.015625)" xlink:href="#DejaVuSans-111"/>
      <use transform="translate(849.804688 0.015625)" xlink:href="#DejaVuSans-117"/>
      <use transform="translate(913.183594 0.015625)" xlink:href="#DejaVuSans-112"/>
      <use transform="translate(976.660156 0.015625)" xlink:href="#DejaVuSans-108"/>
      <use transform="translate(1004.443359 0.015625)" xlink:href="#DejaVuSans-105"/>
      <use transform="translate(1032.226562 0.015625)" xlink:href="#DejaVuSans-110"/>
      <use transform="translate(1095.605469 0.015625)" xlink:href="#DejaVuSans-103"/>
      <use transform="translate(1159.082031 0.015625)" xlink:href="#DejaVuSans-32"/>
      <use transform="translate(1190.869141 0.015625)" xlink:href="#DejaVuSans-105"/>
      <use transform="translate(1218.652344 0.015625)" xlink:href="#DejaVuSans-110"/>
      <use transform="translate(1282.03125 0.015625)" xlink:href="#DejaVuSans-32"/>
      <use transform="translate(1313.818359 0.015625)" xlink:href="#DejaVuSans-117"/>
      <use transform="translate(1377.197266 0.015625)" xlink:href="#DejaVuSans-110"/>
      <use transform="translate(1440.576172 0.015625)" xlink:href="#DejaVuSans-105"/>
      <use transform="translate(1468.359375 0.015625)" xlink:href="#DejaVuSans-116"/>
      <use transform="translate(1507.568359 0.015625)" xlink:href="#DejaVuSans-115"/>
      <use transform="translate(1559.667969 0.015625)" xlink:href="#DejaVuSans-32"/>
      <use transform="translate(1591.455078 0.015625)" xlink:href="#DejaVuSans-111"/>
      <use transform="translate(1652.636719 0.015625)" xlink:href="#DejaVuSans-102"/>
      <use transform="translate(1687.841797 0.015625)" xlink:href="#DejaVuSans-32"/>
      <use transform="translate(1719.628906 0.015625)" xlink:href="#DejaVuSans-116"/>
      <use transform="translate(1758.837891 0.015625)" xlink:href="#DejaVuSans-41"/>
     </g>
    </g>
    <g id="text_32">
     <!-- $\times\mathdefault{10^{4}}\mathdefault{}$ -->
     <g transform="translate(552.109091 57.48)scale(0.1 -0.1)">
      <use transform="translate(0 0.684375)" xlink:href="#DejaVuSans-215"/>
      <use transform="translate(83.789062 0.684375)" xlink:href="#DejaVuSans-49"/>
      <use transform="translate(147.412109 0.684375)" xlink:href="#DejaVuSans-48"/>
      <use transform="translate(211.992188 38.965625)scale(0.7)" xlink:href="#DejaVuSans-52"/>
     </g>
    </g>
   </g>
   <g id="line2d_28">
    <path clip-path="url(#pfdb6bf12f4)" d="M 568.249587 423.703636 
L 571.510293 393.229056 
L 574.770999 367.465113 
L 578.031705 345.08086 
L 581.292412 325.416724 
L 584.553118 308.503635 
L 587.813824 293.660521 
L 591.07453 279.485783 
L 594.335237 267.407686 
L 597.595943 256.72792 
L 600.856649 246.026898 
L 604.117355 237.450745 
L 607.378062 228.860935 
L 610.638768 220.974925 
L 613.899474 213.795834 
L 617.16018 207.326504 
L 620.420887 201.5695 
L 623.681593 195.806383 
L 626.942299 190.037144 
L 630.203005 184.984033 
L 633.463711 180.649057 
L 636.724418 176.310627 
L 639.985124 171.968741 
L 643.24583 168.34786 
L 646.506536 164.724574 
L 649.767243 161.098882 
L 653.027949 157.470783 
L 656.288655 154.566569 
L 659.549361 151.660811 
L 662.810068 148.75351 
L 666.070774 146.57202 
L 669.33148 143.662015 
L 672.592186 141.478496 
L 675.852893 139.294107 
L 679.113599 136.380234 
L 682.374305 134.922717 
L 685.635011 132.735715 
L 688.895718 130.547842 
L 692.156424 128.359096 
L 695.41713 126.899447 
L 698.677836 125.439411 
L 701.938542 123.248629 
L 705.199249 121.787622 
L 708.459955 120.326227 
L 711.720661 118.864444 
L 714.981367 117.402272 
L 718.242074 115.939712 
L 721.50278 114.476763 
L 724.763486 113.013425 
L 728.024192 112.28161 
L 731.284899 110.817688 
L 734.545605 109.353378 
L 737.806311 108.621076 
L 741.067017 107.156182 
L 744.327724 106.423589 
L 747.58843 104.95811 
L 750.849136 104.225224 
L 754.109842 103.492242 
L 757.370548 102.025984 
L 760.631255 101.292708 
L 763.891961 100.559336 
L 767.152667 99.825866 
L 770.413373 99.092298 
L 773.67408 97.62487 
L 776.934786 96.89101 
L 780.195492 96.157052 
L 783.456198 95.422997 
L 786.716905 94.688844 
L 789.977611 93.954594 
L 793.238317 93.220246 
L 796.499023 92.4858 
L 799.75973 91.751257 
L 803.020436 91.016616 
L 806.281142 91.016616 
L 809.541848 90.281877 
L 812.802554 89.547041 
L 816.063261 88.812107 
L 819.323967 88.077075 
L 822.584673 87.341946 
L 825.845379 87.341946 
L 829.106086 86.606718 
L 832.366792 85.871394 
L 835.627498 85.871394 
L 838.888204 85.135971 
L 842.148911 84.40045 
L 845.409617 83.664832 
L 848.670323 83.664832 
L 851.931029 82.929116 
L 855.191736 82.929116 
L 858.452442 82.193302 
L 861.713148 81.45739 
L 864.973854 81.45739 
L 868.23456 80.721381 
L 871.495267 80.721381 
L 874.755973 79.985273 
L 878.016679 79.249068 
L 881.277385 79.249068 
L 884.538092 78.512765 
L 887.798798 78.512765 
L 891.059504 77.776364 
" style="fill:none;stroke:#1f77b4;stroke-linecap:square;stroke-width:1.5;"/>
   </g>
   <g id="patch_8">
    <path d="M 552.109091 441 
L 552.109091 60.48 
" style="fill:none;stroke:#000000;stroke-linecap:square;stroke-linejoin:miter;stroke-width:0.8;"/>
   </g>
   <g id="patch_9">
    <path d="M 907.2 441 
L 907.2 60.48 
" style="fill:none;stroke:#000000;stroke-linecap:square;stroke-linejoin:miter;stroke-width:0.8;"/>
   </g>
   <g id="patch_10">
    <path d="M 552.109091 441 
L 907.2 441 
" style="fill:none;stroke:#000000;stroke-linecap:square;stroke-linejoin:miter;stroke-width:0.8;"/>
   </g>
   <g id="patch_11">
    <path d="M 552.109091 60.48 
L 907.2 60.48 
" style="fill:none;stroke:#000000;stroke-linecap:square;stroke-linejoin:miter;stroke-width:0.8;"/>
   </g>
  </g>
 </g>
 <defs>
  <clipPath id="p186543b634">
   <rect height="380.52" width="355.090909" x="126" y="60.48"/>
  </clipPath>
  <clipPath id="pfdb6bf12f4">
   <rect height="380.52" width="355.090909" x="552.109091" y="60.48"/>
  </clipPath>
 </defs>
</svg>
